<svg viewBox="0 0 600 400" xmlns="http://www.w3.org/2000/svg">
<g transform="translate(72, 364)">
<g>
<g>
<path d="M0,-0 L0,-0 L4.897959,-0 L9.795918,-6.9387755 L14.693877,-13.877551 L19.591837,-20.816326 L24.489796,-27.755102 L29.387754,-27.755102 L34.285713,-27.755102 L39.183674,-34.69388 L44.081635,-34.69388 L48.97959,-34.69388 L53.877552,-41.632652 L58.77551,-41.632652 L63.67347,-41.632652 L68.57143,-48.57143 L73.46939,-48.57143 L78.36735,-55.510204 L83.265305,-55.510204 L88.16327,-62.44898 L93.061226,-69.38776 L97.95918,-76.32653 L102.85714,-76.32653 L107.755104,-76.32653 L112.65306,-83.265305 L117.55102,-83.265305 L122.44898,-90.20408 L127.34694,-90.20408 L132.2449,-90.20408 L137.14285,-97.14286 L142.04082,-97.14286 L146.93878,-104.081635 L151.83673,-104.081635 L156.7347,-104.081635 L161.63266,-111.02041 L166.53061,-111.02041 L171.42857,-117.95918 L176.32654,-124.89796 L181.22449,-124.89796 L186.12245,-124.89796 L191.0204,-124.89796 L195.91837,-131.83673 L200.81633,-138.77551 L205.71428,-138.77551 L210.61224,-145.71428 L215.51021,-145.71428 L220.40816,-152.65306 L225.30612,-152.65306 L230.20409,-152.65306 L235.10204,-159.59184 L240,-159.59184 L244.89796,-159.59184 L249.79591,-166.53061 L254.69388,-173.46939 L259.59183,-180.40816 L264.4898,-180.40816 L269.38776,-180.40816 L274.2857,-187.34694 L279.1837,-187.34694 L284.08163,-194.28572 L288.97958,-194.28572 L293.87756,-201.22449 L298.7755,-201.22449 L303.67346,-208.16327 L308.57144,-215.10204 L313.4694,-215.10204 L318.36734,-215.10204 L323.26532,-222.04082 L328.16327,-222.04082 L333.06122,-228.9796 L337.9592,-235.91837 L342.85715,-242.85715 L347.7551,-242.85715 L352.65308,-249.79591 L357.55103,-249.79591 L362.44897,-249.79591 L367.34692,-249.79591 L372.2449,-256.73468 L377.14285,-256.73468 L382.0408,-263.67346 L386.93878,-263.67346 L391.83673,-270.61224 L396.73468,-277.55103 L401.63266,-277.55103 L406.5306,-284.4898 L411.42856,-284.4898 L416.32654,-291.42856 L421.2245,-291.42856 L426.12244,-298.36734 L431.02042,-298.36734 L435.91837,-305.30612 L440.8163,-312.2449 L445.7143,-312.2449 L450.61224,-312.2449 L455.5102,-312.2449 L460.40817,-319.1837 L465.30612,-326.12244 L470.20407,-333.06122 L475.10205,-333.06122 L480,-340" fill="none" stroke="#FF0000" stroke-linejoin="round" stroke-width="2"/>
</g>
</g>
<g transform="translate(380, -340)">
<text font-size="12" text-anchor="start" x="0" y="0">
generated resources
</text>
<line stroke="#FF0000" stroke-width="2" x1="-10" x2="-3" y1="-4" y2="-4"/>
</g>
<g>
<g>
<path d="M0,-0 L0,-0 L4.897959,-0 L9.795918,-0 L14.693877,-0 L19.591837,-0 L24.489796,-0 L29.387754,-6.9387755 L34.285713,-6.9387755 L39.183674,-13.877551 L44.081635,-20.816326 L48.97959,-20.816326 L53.877552,-20.816326 L58.77551,-20.816326 L63.67347,-20.816326 L68.57143,-27.755102 L73.46939,-34.69388 L78.36735,-34.69388 L83.265305,-41.632652 L88.16327,-41.632652 L93.061226,-48.57143 L97.95918,-55.510204 L102.85714,-55.510204 L107.755104,-62.44898 L112.65306,-62.44898 L117.55102,-62.44898 L122.44898,-62.44898 L127.34694,-69.38776 L132.2449,-76.32653 L137.14285,-83.265305 L142.04082,-90.20408 L146.93878,-97.14286 L151.83673,-97.14286 L156.7347,-97.14286 L161.63266,-97.14286 L166.53061,-104.081635 L171.42857,-104.081635 L176.32654,-104.081635 L181.22449,-104.081635 L186.12245,-111.02041 L191.0204,-111.02041 L195.91837,-111.02041 L200.81633,-117.95918 L205.71428,-124.89796 L210.61224,-124.89796 L215.51021,-131.83673 L220.40816,-138.77551 L225.30612,-138.77551 L230.20409,-138.77551 L235.10204,-138.77551 L240,-145.71428 L244.89796,-152.65306 L249.79591,-152.65306 L254.69388,-152.65306 L259.59183,-152.65306 L264.4898,-159.59184 L269.38776,-159.59184 L274.2857,-159.59184 L279.1837,-159.59184 L284.08163,-166.53061 L288.97958,-166.53061 L293.87756,-173.46939 L298.7755,-173.46939 L303.67346,-173.46939 L308.57144,-173.46939 L313.4694,-173.46939 L318.36734,-180.40816 L323.26532,-180.40816 L328.16327,-187.34694 L333.06122,-187.34694 L337.9592,-187.34694 L342.85715,-194.28572 L347.7551,-194.28572 L352.65308,-201.22449 L357.55103,-201.22449 L362.44897,-201.22449 L367.34692,-208.16327 L372.2449,-208.16327 L377.14285,-215.10204 L382.0408,-215.10204 L386.93878,-215.10204 L391.83673,-222.04082 L396.73468,-222.04082 L401.63266,-222.04082 L406.5306,-222.04082 L411.42856,-228.9796 L416.32654,-228.9796 L421.2245,-228.9796 L426.12244,-228.9796 L431.02042,-235.91837 L435.91837,-235.91837 L440.8163,-242.85715 L445.7143,-242.85715 L450.61224,-242.85715 L455.5102,-242.85715 L460.40817,-249.79591 L465.30612,-249.79591 L470.20407,-249.79591 L475.10205,-249.79591 L480,-249.79591" fill="none" stroke="#F6FF00" stroke-linejoin="round" stroke-width="2"/>
</g>
</g>
<g transform="translate(380, -322)">
<text font-size="12" text-anchor="start" x="0" y="0">
served resources
</text>
<line stroke="#F6FF00" stroke-width="2" x1="-10" x2="-3" y1="-4" y2="-4"/>
</g>
<g>
<g>
<path d="M0,-0 L0,-0 L4.897959,-0 L9.795918,-0 L14.693877,-0 L19.591837,-0 L24.489796,-0 L29.387754,-0 L34.285713,-0 L39.183674,-0 L44.081635,-0 L48.97959,-0 L53.877552,-0 L58.77551,-0 L63.67347,-0 L68.57143,-0 L73.46939,-0 L78.36735,-0 L83.265305,-0 L88.16327,-0 L93.061226,-0 L97.95918,-0 L102.85714,-0 L107.755104,-0 L112.65306,-0 L117.55102,-0 L122.44898,-0 L127.34694,-0 L132.2449,-0 L137.14285,-0 L142.04082,-0 L146.93878,-0 L151.83673,-0 L156.7347,-0 L161.63266,-0 L166.53061,-0 L171.42857,-0 L176.32654,-0 L181.22449,-0 L186.12245,-0 L191.0204,-0 L195.91837,-0 L200.81633,-0 L205.71428,-0 L210.61224,-0 L215.51021,-0 L220.40816,-0 L225.30612,-0 L230.20409,-0 L235.10204,-0 L240,-0 L244.89796,-0 L249.79591,-0 L254.69388,-0 L259.59183,-0 L264.4898,-0 L269.38776,-0 L274.2857,-0 L279.1837,-0 L284.08163,-0 L288.97958,-0 L293.87756,-0 L298.7755,-0 L303.67346,-0 L308.57144,-0 L313.4694,-0 L318.36734,-0 L323.26532,-0 L328.16327,-0 L333.06122,-0 L337.9592,-0 L342.85715,-0 L347.7551,-0 L352.65308,-0 L357.55103,-0 L362.44897,-0 L367.34692,-0 L372.2449,-0 L377.14285,-0 L382.0408,-0 L386.93878,-0 L391.83673,-0 L396.73468,-0 L401.63266,-0 L406.5306,-0 L411.42856,-0 L416.32654,-0 L421.2245,-0 L426.12244,-0 L431.02042,-0 L435.91837,-0 L440.8163,-0 L445.7143,-0 L450.61224,-0 L455.5102,-0 L460.40817,-0 L465.30612,-0 L470.20407,-6.9387755 L475.10205,-6.9387755 L480,-13.877551" fill="none" stroke="#00FFFB" stroke-linejoin="round" stroke-width="2"/>
</g>
</g>
<g transform="translate(380, -304)">
<text font-size="12" text-anchor="start" x="0" y="0">
discarted resources
</text>
<line stroke="#00FFFB" stroke-width="2" x1="-10" x2="-3" y1="-4" y2="-4"/>
</g>
<g>
<g>
<path d="M0,-0 L0,-0 L4.897959,-0 L9.795918,-0 L14.693877,-6.9387755 L19.591837,-13.877551 L24.489796,-20.816326 L29.387754,-13.877551 L34.285713,-13.877551 L39.183674,-13.877551 L44.081635,-6.9387755 L48.97959,-6.9387755 L53.877552,-13.877551 L58.77551,-13.877551 L63.67347,-13.877551 L68.57143,-13.877551 L73.46939,-6.9387755 L78.36735,-13.877551 L83.265305,-6.9387755 L88.16327,-13.877551 L93.061226,-13.877551 L97.95918,-13.877551 L102.85714,-13.877551 L107.755104,-6.9387755 L112.65306,-13.877551 L117.55102,-13.877551 L122.44898,-20.816326 L127.34694,-13.877551 L132.2449,-6.9387755 L137.14285,-6.9387755 L142.04082,-0 L146.93878,-0 L151.83673,-0 L156.7347,-0 L161.63266,-6.9387755 L166.53061,-0 L171.42857,-6.9387755 L176.32654,-13.877551 L181.22449,-13.877551 L186.12245,-6.9387755 L191.0204,-6.9387755 L195.91837,-13.877551 L200.81633,-13.877551 L205.71428,-6.9387755 L210.61224,-13.877551 L215.51021,-6.9387755 L220.40816,-6.9387755 L225.30612,-6.9387755 L230.20409,-6.9387755 L235.10204,-13.877551 L240,-6.9387755 L244.89796,-0 L249.79591,-6.9387755 L254.69388,-13.877551 L259.59183,-20.816326 L264.4898,-13.877551 L269.38776,-13.877551 L274.2857,-20.816326 L279.1837,-20.816326 L284.08163,-20.816326 L288.97958,-20.816326 L293.87756,-20.816326 L298.7755,-20.816326 L303.67346,-27.755102 L308.57144,-34.69388 L313.4694,-34.69388 L318.36734,-27.755102 L323.26532,-34.69388 L328.16327,-27.755102 L333.06122,-34.69388 L337.9592,-41.632652 L342.85715,-41.632652 L347.7551,-41.632652 L352.65308,-41.632652 L357.55103,-41.632652 L362.44897,-41.632652 L367.34692,-34.69388 L372.2449,-41.632652 L377.14285,-34.69388 L382.0408,-41.632652 L386.93878,-41.632652 L391.83673,-41.632652 L396.73468,-48.57143 L401.63266,-48.57143 L406.5306,-55.510204 L411.42856,-48.57143 L416.32654,-55.510204 L421.2245,-55.510204 L426.12244,-62.44898 L431.02042,-55.510204 L435.91837,-62.44898 L440.8163,-62.44898 L445.7143,-62.44898 L450.61224,-62.44898 L455.5102,-62.44898 L460.40817,-62.44898 L465.30612,-69.38776 L470.20407,-69.38776 L475.10205,-69.38776 L480,-69.38776" fill="none" stroke="#2600FF" stroke-linejoin="round" stroke-width="2"/>
</g>
</g>
<g transform="translate(380, -286)">
<text font-size="12" text-anchor="start" x="0" y="0">
queue size
</text>
<line stroke="#2600FF" stroke-width="2" x1="-10" x2="-3" y1="-4" y2="-4"/>
</g>
<g>
<g>
<line stroke="black" stroke-width="1" x1="0" x2="0" y1="0" y2="10"/>
<line stroke="black" stroke-width="1" x1="97.95918367346938" x2="97.95918367346938" y1="0" y2="10"/>
<line stroke="black" stroke-width="1" x1="195.91836734693877" x2="195.91836734693877" y1="0" y2="10"/>
<line stroke="black" stroke-width="1" x1="293.8775510204082" x2="293.8775510204082" y1="0" y2="10"/>
<line stroke="black" stroke-width="1" x1="391.83673469387753" x2="391.83673469387753" y1="0" y2="10"/>
</g>
<line stroke="black" stroke-width="1" x1="0" x2="480" y1="0" y2="0"/>
<g>
<text font-size="12" text-anchor="middle" x="0" y="20">
0
</text>
<text font-size="12" text-anchor="middle" x="97.95918367346938" y="20">
20
</text>
<text font-size="12" text-anchor="middle" x="195.91836734693877" y="20">
40
</text>
<text font-size="12" text-anchor="middle" x="293.8775510204082" y="20">
60
</text>
<text font-size="12" text-anchor="middle" x="391.83673469387753" y="20">
80
</text>
</g>
<text font-size="12" text-anchor="middle" x="240" y="30">

</text>
</g>
<g>
<g>
<line stroke="black" stroke-width="1" x1="0" x2="-10" y1="-0" y2="-0"/>
<line stroke="black" stroke-width="1" x1="0" x2="-10" y1="-69.38775510204081" y2="-69.38775510204081"/>
<line stroke="black" stroke-width="1" x1="0" x2="-10" y1="-138.77551020408163" y2="-138.77551020408163"/>
<line stroke="black" stroke-width="1" x1="0" x2="-10" y1="-208.16326530612244" y2="-208.16326530612244"/>
<line stroke="black" stroke-width="1" x1="0" x2="-10" y1="-277.55102040816325" y2="-277.55102040816325"/>
</g>
<line stroke="black" stroke-width="1" x1="0" x2="0" y1="0" y2="-340"/>
<g>
<text dominant-baseline="middle" font-size="12" text-anchor="end" x="-15" y="-0">
0
</text>
<text dominant-baseline="middle" font-size="12" text-anchor="end" x="-15" y="-69.38775510204081">
10
</text>
<text dominant-baseline="middle" font-size="12" text-anchor="end" x="-15" y="-138.77551020408163">
20
</text>
<text dominant-baseline="middle" font-size="12" text-anchor="end" x="-15" y="-208.16326530612244">
30
</text>
<text dominant-baseline="middle" font-size="12" text-anchor="end" x="-15" y="-277.55102040816325">
40
</text>
</g>
<text font-size="12" text-anchor="middle" transform="rotate(-90 -24 -170)" x="-24" y="-182">

</text>
</g>
</g>
</svg>