<svg viewBox="0 0 600 400" xmlns="http://www.w3.org/2000/svg">
<g transform="translate(72, 364)">
<g>
<g>
<path d="M0,-0 L0,-0 L0.48096192,-0 L0.96192384,-0 L1.4428858,-0.83129585 L1.9238477,-0.83129585 L2.4048097,-1.6625917 L2.8857715,-2.4938874 L3.3667336,-3.3251834 L3.8476954,-3.3251834 L4.328657,-4.1564794 L4.8096194,-4.1564794 L5.290581,-4.987775 L5.771543,-4.987775 L6.252505,-4.987775 L6.733467,-4.987775 L7.214429,-5.819071 L7.6953907,-6.650367 L8.1763525,-7.4816628 L8.657314,-7.4816628 L9.138276,-8.312959 L9.619239,-8.312959 L10.100201,-8.312959 L10.581162,-9.144255 L11.062124,-9.144255 L11.543086,-9.144255 L12.024048,-9.144255 L12.50501,-9.97555 L12.985972,-9.97555 L13.466934,-9.97555 L13.947896,-9.97555 L14.428858,-10.806846 L14.90982,-11.638142 L15.390781,-12.469438 L15.871743,-12.469438 L16.352705,-13.300734 L16.833668,-13.300734 L17.314629,-14.13203 L17.795591,-14.9633255 L18.276552,-14.9633255 L18.757515,-14.9633255 L19.238478,-14.9633255 L19.719439,-14.9633255 L20.200401,-15.794621 L20.681362,-15.794621 L21.162325,-15.794621 L21.643286,-16.625917 L22.124249,-17.457212 L22.605211,-17.457212 L23.086172,-18.28851 L23.567135,-18.28851 L24.048096,-18.28851 L24.529058,-18.28851 L25.01002,-18.28851 L25.490982,-19.119804 L25.971945,-19.119804 L26.452906,-19.9511 L26.933868,-19.9511 L27.41483,-20.782396 L27.895792,-20.782396 L28.376753,-20.782396 L28.857716,-20.782396 L29.338676,-21.613691 L29.81964,-22.444988 L30.300602,-22.444988 L30.781563,-22.444988 L31.262526,-22.444988 L31.743486,-23.276283 L32.22445,-24.10758 L32.70541,-24.10758 L33.18637,-24.10758 L33.667336,-24.10758 L34.148296,-24.938875 L34.629257,-25.77017 L35.11022,-26.601467 L35.591183,-27.432762 L36.072144,-27.432762 L36.553104,-28.26406 L37.03407,-28.26406 L37.51503,-28.26406 L37.99599,-28.26406 L38.476955,-28.26406 L38.957916,-29.095354 L39.438877,-29.095354 L39.919838,-29.095354 L40.400803,-29.926651 L40.881763,-29.926651 L41.362724,-29.926651 L41.84369,-29.926651 L42.32465,-30.757946 L42.80561,-30.757946 L43.28657,-30.757946 L43.767536,-30.757946 L44.248497,-31.589243 L44.729458,-31.589243 L45.210423,-32.420536 L45.691383,-32.420536 L46.172344,-33.251835 L46.653305,-33.251835 L47.13427,-33.251835 L47.61523,-33.251835 L48.09619,-34.08313 L48.577156,-34.08313 L49.058117,-34.08313 L49.539078,-34.914425 L50.02004,-34.914425 L50.501003,-35.74572 L50.981964,-35.74572 L51.462925,-36.57702 L51.94389,-36.57702 L52.42485,-36.57702 L52.90581,-37.408314 L53.386772,-37.408314 L53.867737,-37.408314 L54.348698,-38.23961 L54.82966,-39.070904 L55.31062,-39.070904 L55.791584,-39.9022 L56.272545,-39.9022 L56.753506,-39.9022 L57.23447,-39.9022 L57.71543,-39.9022 L58.196392,-40.733498 L58.677353,-40.733498 L59.158318,-41.564793 L59.63928,-42.396088 L60.12024,-42.396088 L60.601204,-42.396088 L61.082165,-43.227383 L61.563126,-43.227383 L62.044086,-43.227383 L62.52505,-43.227383 L63.006012,-44.05868 L63.486973,-44.889977 L63.967937,-44.889977 L64.4489,-44.889977 L64.92986,-44.889977 L65.41082,-45.72127 L65.891785,-46.552567 L66.37274,-46.552567 L66.85371,-47.38386 L67.33467,-47.38386 L67.81563,-47.38386 L68.29659,-47.38386 L68.77756,-47.38386 L69.258514,-48.21516 L69.73948,-48.21516 L70.22044,-48.21516 L70.7014,-49.046455 L71.182365,-49.046455 L71.66333,-49.046455 L72.14429,-49.046455 L72.62525,-49.046455 L73.10621,-49.87775 L73.58717,-50.709045 L74.06814,-50.709045 L74.549095,-50.709045 L75.03006,-50.709045 L75.511024,-51.54034 L75.99198,-51.54034 L76.472946,-52.37164 L76.95391,-52.37164 L77.43487,-52.37164 L77.91583,-53.202934 L78.3968,-53.202934 L78.877754,-54.03423 L79.35872,-54.03423 L79.839676,-54.03423 L80.32064,-54.03423 L80.801605,-54.03423 L81.28256,-54.865524 L81.76353,-55.696823 L82.24449,-56.52812 L82.72545,-56.52812 L83.20641,-57.359413 L83.68738,-57.359413 L84.168335,-58.19071 L84.6493,-58.19071 L85.130264,-58.19071 L85.61122,-59.022003 L86.092186,-59.853302 L86.57314,-60.684597 L87.05411,-60.684597 L87.53507,-61.515892 L88.01603,-62.347187 L88.496994,-62.347187 L88.97796,-62.347187 L89.458916,-63.178486 L89.93988,-63.178486 L90.420845,-63.178486 L90.9018,-63.178486 L91.38277,-63.178486 L91.86372,-64.00978 L92.34469,-64.00978 L92.82565,-64.00978 L93.30661,-64.84107 L93.787575,-64.84107 L94.26854,-65.67237 L94.7495,-66.50367 L95.23046,-67.33496 L95.711426,-67.33496 L96.19238,-68.16626 L96.67335,-68.16626 L97.15431,-68.16626 L97.63527,-68.99756 L98.116234,-68.99756 L98.59719,-68.99756 L99.078156,-69.82885 L99.55912,-69.82885 L100.04008,-70.66015 L100.52104,-71.49144 L101.00201,-71.49144 L101.48296,-72.32274 L101.96393,-72.32274 L102.44489,-72.32274 L102.92585,-73.15404 L103.406815,-73.15404 L103.88778,-73.15404 L104.36874,-73.98533 L104.8497,-73.98533 L105.33066,-73.98533 L105.81162,-73.98533 L106.29259,-74.81663 L106.773544,-74.81663 L107.25451,-75.64792 L107.73547,-75.64792 L108.21643,-76.47922 L108.697395,-76.47922 L109.17836,-76.47922 L109.65932,-76.47922 L110.14028,-77.31052 L110.62124,-78.14181 L111.1022,-78.14181 L111.58317,-78.97311 L112.064125,-78.97311 L112.54509,-78.97311 L113.026054,-79.8044 L113.50701,-79.8044 L113.987976,-79.8044 L114.46894,-79.8044 L114.9499,-80.6357 L115.43086,-80.6357 L115.91183,-80.6357 L116.392784,-81.466995 L116.87375,-81.466995 L117.354706,-82.29829 L117.83567,-82.29829 L118.316635,-83.129585 L118.79759,-83.129585 L119.27856,-83.129585 L119.75952,-83.129585 L120.24048,-83.96088 L120.72144,-83.96088 L121.20241,-83.96088 L121.683365,-84.792175 L122.16433,-84.792175 L122.645294,-84.792175 L123.12625,-85.623474 L123.607216,-85.623474 L124.08817,-86.454765 L124.56914,-86.454765 L125.0501,-87.286064 L125.53106,-87.286064 L126.012024,-87.286064 L126.49299,-87.286064 L126.973946,-88.11736 L127.45491,-88.11736 L127.935875,-88.948654 L128.41684,-88.948654 L128.8978,-88.948654 L129.37875,-88.948654 L129.85973,-89.77995 L130.34068,-89.77995 L130.82164,-89.77995 L131.30261,-90.611244 L131.78357,-91.44254 L132.26453,-92.27384 L132.74548,-92.27384 L133.22646,-92.27384 L133.70741,-92.27384 L134.18837,-93.10513 L134.66934,-93.93643 L135.1503,-93.93643 L135.63126,-93.93643 L136.11223,-94.76772 L136.59319,-94.76772 L137.07414,-94.76772 L137.55511,-95.59902 L138.03607,-95.59902 L138.51703,-95.59902 L138.998,-95.59902 L139.47896,-96.43032 L139.95992,-97.26161 L140.44089,-97.26161 L140.92184,-98.09291 L141.4028,-98.09291 L141.88377,-98.09291 L142.36473,-98.9242 L142.84569,-98.9242 L143.32666,-98.9242 L143.80762,-99.7555 L144.28857,-99.7555 L144.76955,-99.7555 L145.2505,-100.5868 L145.73146,-100.5868 L146.21242,-101.41809 L146.69339,-101.41809 L147.17435,-102.24939 L147.6553,-102.24939 L148.13628,-102.24939 L148.61723,-102.24939 L149.09819,-102.24939 L149.57916,-103.08068 L150.06012,-103.08068 L150.54108,-103.08068 L151.02205,-103.91198 L151.503,-104.74328 L151.98396,-104.74328 L152.46494,-105.57457 L152.94589,-105.57457 L153.42685,-105.57457 L153.90782,-105.57457 L154.38878,-106.40587 L154.86974,-106.40587 L155.35071,-106.40587 L155.83167,-106.40587 L156.31262,-106.40587 L156.7936,-106.40587 L157.27455,-107.23717 L157.75551,-107.23717 L158.23647,-107.23717 L158.71744,-107.23717 L159.1984,-107.23717 L159.67935,-108.06846 L160.16032,-108.06846 L160.64128,-108.89976 L161.12224,-108.89976 L161.60321,-108.89976 L162.08417,-108.89976 L162.56512,-108.89976 L163.0461,-109.73105 L163.52705,-109.73105 L164.00801,-110.56235 L164.48898,-111.39365 L164.96994,-111.39365 L165.4509,-111.39365 L165.93187,-111.39365 L166.41283,-112.22494 L166.89378,-112.22494 L167.37476,-113.05624 L167.85571,-113.05624 L168.33667,-113.05624 L168.81764,-113.88753 L169.2986,-113.88753 L169.77956,-113.88753 L170.26053,-113.88753 L170.74149,-114.71883 L171.22244,-114.71883 L171.7034,-114.71883 L172.18437,-114.71883 L172.66533,-114.71883 L173.14629,-115.550125 L173.62726,-116.38142 L174.10822,-117.212715 L174.58917,-117.212715 L175.07014,-118.04401 L175.5511,-118.04401 L176.03206,-118.04401 L176.51303,-118.875305 L176.99399,-118.875305 L177.47495,-118.875305 L177.95592,-119.706604 L178.43687,-120.537895 L178.91783,-120.537895 L179.3988,-120.537895 L179.87976,-121.369194 L180.36072,-121.369194 L180.84169,-121.369194 L181.32265,-121.369194 L181.8036,-122.200485 L182.28458,-122.200485 L182.76553,-122.200485 L183.24649,-123.031784 L183.72745,-123.031784 L184.20842,-123.86308 L184.68938,-123.86308 L185.17033,-124.694374 L185.6513,-124.694374 L186.13226,-124.694374 L186.61322,-125.52567 L187.0942,-125.52567 L187.57515,-126.35697 L188.0561,-127.18826 L188.53708,-127.18826 L189.01804,-127.18826 L189.499,-127.18826 L189.97997,-128.01956 L190.46092,-128.85086 L190.94188,-129.68214 L191.42285,-129.68214 L191.90381,-130.51344 L192.38477,-130.51344 L192.86574,-131.34474 L193.3467,-132.17604 L193.82765,-132.17604 L194.30862,-133.00734 L194.78958,-133.00734 L195.27054,-133.83864 L195.75151,-133.83864 L196.23247,-133.83864 L196.71342,-134.66992 L197.19438,-134.66992 L197.67535,-135.50122 L198.15631,-136.33252 L198.63727,-136.33252 L199.11824,-136.33252 L199.5992,-136.33252 L200.08015,-137.16382 L200.56113,-137.99512 L201.04208,-137.99512 L201.52304,-138.8264 L202.00401,-138.8264 L202.48497,-138.8264 L202.96593,-139.6577 L203.4469,-139.6577 L203.92786,-140.489 L204.40881,-140.489 L204.88979,-141.3203 L205.37074,-142.1516 L205.8517,-142.1516 L206.33267,-142.1516 L206.81363,-142.98288 L207.29459,-143.81418 L207.77556,-143.81418 L208.25652,-143.81418 L208.73747,-144.64548 L209.21843,-144.64548 L209.6994,-144.64548 L210.18036,-144.64548 L210.66132,-145.47678 L211.14229,-145.47678 L211.62325,-145.47678 L212.1042,-146.30807 L212.58517,-146.30807 L213.06613,-146.30807 L213.54709,-146.30807 L214.02806,-146.30807 L214.50902,-146.30807 L214.98997,-146.30807 L215.47095,-146.30807 L215.9519,-147.13936 L216.43286,-147.97066 L216.91383,-147.97066 L217.39479,-147.97066 L217.87575,-148.80196 L218.35672,-148.80196 L218.83768,-148.80196 L219.31863,-149.63326 L219.7996,-150.46455 L220.28056,-150.46455 L220.76152,-150.46455 L221.24248,-151.29584 L221.72345,-152.12714 L222.2044,-152.12714 L222.68536,-152.12714 L223.16634,-152.95844 L223.6473,-152.95844 L224.12825,-153.78973 L224.60922,-153.78973 L225.09018,-154.62103 L225.57114,-154.62103 L226.05211,-154.62103 L226.53307,-155.45232 L227.01402,-155.45232 L227.495,-155.45232 L227.97595,-155.45232 L228.45691,-156.28362 L228.93788,-157.11491 L229.41884,-157.94621 L229.8998,-157.94621 L230.38077,-157.94621 L230.86172,-157.94621 L231.34268,-157.94621 L231.82365,-157.94621 L232.30461,-158.77751 L232.78557,-158.77751 L233.26654,-158.77751 L233.7475,-158.77751 L234.22845,-159.6088 L234.70941,-159.6088 L235.19038,-159.6088 L235.67134,-159.6088 L236.1523,-160.4401 L236.63327,-161.2714 L237.11423,-161.2714 L237.59518,-161.2714 L238.07616,-162.10269 L238.55711,-162.10269 L239.03807,-162.10269 L239.51904,-162.10269 L240,-162.93399 L240.48096,-162.93399 L240.96193,-163.76527 L241.44289,-163.76527 L241.92384,-164.59657 L242.40482,-164.59657 L242.88577,-165.42787 L243.36673,-165.42787 L243.8477,-165.42787 L244.32866,-166.25917 L244.80962,-167.09047 L245.29059,-167.09047 L245.77155,-167.92175 L246.2525,-167.92175 L246.73346,-168.75305 L247.21443,-169.58435 L247.69539,-169.58435 L248.17635,-170.41565 L248.65732,-170.41565 L249.13828,-171.24695 L249.61923,-171.24695 L250.1002,-171.24695 L250.58116,-172.07825 L251.06212,-172.90953 L251.54309,-173.74083 L252.02405,-173.74083 L252.505,-174.57213 L252.98598,-174.57213 L253.46693,-175.40343 L253.94789,-176.23473 L254.42886,-176.23473 L254.90982,-177.06601 L255.39078,-177.89731 L255.87175,-178.7286 L256.3527,-178.7286 L256.83368,-178.7286 L257.31464,-179.5599 L257.7956,-180.3912 L258.27655,-181.22249 L258.7575,-181.22249 L259.23846,-182.05379 L259.71945,-182.05379 L260.2004,-182.05379 L260.68137,-182.88509 L261.16232,-183.71638 L261.64328,-184.54768 L262.12424,-184.54768 L262.60522,-185.37897 L263.08618,-186.21027 L263.56714,-186.21027 L264.0481,-186.21027 L264.52905,-187.04156 L265.01,-187.04156 L265.49097,-187.04156 L265.97195,-187.87286 L266.4529,-187.87286 L266.93387,-188.70416 L267.41483,-188.70416 L267.89578,-188.70416 L268.37674,-189.53545 L268.85773,-189.53545 L269.33868,-190.36674 L269.81964,-191.19804 L270.3006,-191.19804 L270.78156,-191.19804 L271.2625,-191.19804 L271.7435,-191.19804 L272.22446,-192.02934 L272.7054,-192.02934 L273.18637,-192.02934 L273.66733,-192.02934 L274.1483,-192.86064 L274.62927,-192.86064 L275.11023,-192.86064 L275.5912,-193.69193 L276.07214,-194.52322 L276.5531,-195.35452 L277.03406,-195.35452 L277.51505,-195.35452 L277.996,-196.18582 L278.47696,-196.18582 L278.95792,-196.18582 L279.43887,-197.01712 L279.91983,-197.01712 L280.4008,-197.8484 L280.88177,-197.8484 L281.36273,-198.6797 L281.8437,-198.6797 L282.32465,-198.6797 L282.8056,-199.511 L283.28656,-199.511 L283.76755,-199.511 L284.2485,-199.511 L284.72946,-200.3423 L285.21042,-200.3423 L285.69138,-200.3423 L286.17233,-201.1736 L286.65332,-201.1736 L287.13428,-202.00488 L287.61523,-202.00488 L288.0962,-202.83618 L288.57715,-202.83618 L289.0581,-202.83618 L289.5391,-202.83618 L290.02005,-202.83618 L290.501,-203.66748 L290.98196,-204.49878 L291.46292,-204.49878 L291.94388,-205.33008 L292.42484,-205.33008 L292.90582,-206.16136 L293.38678,-206.16136 L293.86774,-206.99266 L294.3487,-206.99266 L294.82965,-207.82396 L295.3106,-207.82396 L295.7916,-207.82396 L296.27255,-208.65526 L296.7535,-208.65526 L297.23447,-209.48656 L297.71542,-209.48656 L298.19638,-210.31786 L298.67737,-210.31786 L299.15833,-211.14914 L299.63928,-211.98044 L300.12024,-212.81174 L300.6012,-212.81174 L301.08215,-212.81174 L301.56314,-213.64304 L302.0441,-213.64304 L302.52505,-214.47433 L303.006,-215.30562 L303.48697,-215.30562 L303.96793,-215.30562 L304.44888,-216.13692 L304.92987,-216.13692 L305.41083,-216.13692 L305.89178,-216.13692 L306.37274,-216.96822 L306.8537,-216.96822 L307.33466,-216.96822 L307.81564,-217.79951 L308.2966,-218.63081 L308.77756,-218.63081 L309.2585,-218.63081 L309.73947,-219.4621 L310.22043,-219.4621 L310.70142,-219.4621 L311.18237,-219.4621 L311.66333,-220.2934 L312.1443,-221.1247 L312.62524,-221.1247 L313.1062,-221.956 L313.5872,-221.956 L314.06815,-222.7873 L314.5491,-222.7873 L315.03006,-222.7873 L315.51102,-222.7873 L315.99197,-223.61858 L316.47293,-223.61858 L316.95392,-224.44987 L317.43488,-224.44987 L317.91583,-224.44987 L318.3968,-224.44987 L318.87775,-224.44987 L319.3587,-225.28117 L319.8397,-225.28117 L320.32065,-226.11247 L320.8016,-226.11247 L321.28256,-226.11247 L321.76352,-226.11247 L322.24448,-226.94377 L322.72546,-226.94377 L323.20642,-227.77505 L323.68738,-227.77505 L324.16833,-227.77505 L324.6493,-227.77505 L325.13025,-228.60635 L325.61124,-228.60635 L326.0922,-228.60635 L326.57315,-229.43765 L327.0541,-229.43765 L327.53506,-229.43765 L328.01602,-229.43765 L328.49698,-230.26895 L328.97797,-231.10025 L329.45892,-231.10025 L329.93988,-231.10025 L330.42084,-231.93153 L330.9018,-232.76283 L331.38275,-232.76283 L331.86374,-232.76283 L332.3447,-233.59413 L332.82565,-233.59413 L333.3066,-233.59413 L333.78757,-233.59413 L334.26852,-234.42543 L334.7495,-234.42543 L335.23047,-235.25673 L335.71143,-236.08801 L336.19238,-236.08801 L336.67334,-236.91931 L337.1543,-236.91931 L337.63528,-236.91931 L338.11624,-236.91931 L338.5972,-236.91931 L339.07816,-237.75061 L339.5591,-238.58191 L340.04007,-239.41321 L340.52106,-239.41321 L341.002,-239.41321 L341.48297,-240.24449 L341.96393,-240.24449 L342.4449,-241.07579 L342.92584,-241.07579 L343.4068,-241.90709 L343.8878,-242.73839 L344.36874,-243.56969 L344.8497,-243.56969 L345.33066,-244.40097 L345.8116,-244.40097 L346.29257,-245.23227 L346.77356,-246.06357 L347.25452,-246.06357 L347.73547,-246.06357 L348.21643,-246.89487 L348.6974,-246.89487 L349.17834,-246.89487 L349.65933,-246.89487 L350.1403,-247.72617 L350.62125,-247.72617 L351.1022,-247.72617 L351.58316,-248.55746 L352.06412,-248.55746 L352.5451,-248.55746 L353.02606,-249.38875 L353.50702,-249.38875 L353.98798,-250.22005 L354.46893,-250.22005 L354.9499,-251.05135 L355.43085,-251.05135 L355.91183,-251.05135 L356.3928,-251.88264 L356.87375,-252.71394 L357.3547,-252.71394 L357.83566,-253.54523 L358.31662,-253.54523 L358.7976,-253.54523 L359.27856,-253.54523 L359.75952,-254.37653 L360.24048,-255.20782 L360.72144,-256.03912 L361.2024,-256.03912 L361.68338,-256.87042 L362.16434,-257.70172 L362.6453,-257.70172 L363.12625,-257.70172 L363.6072,-257.70172 L364.08817,-258.53302 L364.56915,-258.53302 L365.0501,-259.3643 L365.53107,-259.3643 L366.01202,-260.1956 L366.49298,-260.1956 L366.97394,-260.1956 L367.4549,-261.0269 L367.93588,-261.8582 L368.41684,-262.68948 L368.8978,-262.68948 L369.37875,-262.68948 L369.8597,-262.68948 L370.34067,-263.52078 L370.82166,-264.35208 L371.3026,-265.18338 L371.78357,-266.01468 L372.26453,-266.01468 L372.74548,-266.84598 L373.22644,-266.84598 L373.70743,-267.67728 L374.1884,-267.67728 L374.66934,-268.50854 L375.1503,-268.50854 L375.63126,-269.33984 L376.1122,-270.17114 L376.5932,-270.17114 L377.07416,-271.00244 L377.5551,-271.00244 L378.03607,-271.00244 L378.51703,-271.00244 L378.998,-271.00244 L379.47894,-271.83374 L379.95993,-271.83374 L380.4409,-272.66504 L380.92184,-272.66504 L381.4028,-273.49634 L381.88376,-273.49634 L382.36472,-273.49634 L382.8457,-274.32764 L383.32666,-274.32764 L383.80762,-275.15894 L384.28857,-275.99023 L384.76953,-276.8215 L385.2505,-277.6528 L385.73148,-277.6528 L386.21243,-278.4841 L386.6934,-279.3154 L387.17435,-279.3154 L387.6553,-279.3154 L388.13626,-280.1467 L388.61725,-280.1467 L389.0982,-280.1467 L389.57916,-280.978 L390.06012,-280.978 L390.54108,-280.978 L391.02203,-281.8093 L391.50302,-281.8093 L391.98398,-282.6406 L392.46494,-283.4719 L392.9459,-283.4719 L393.42685,-283.4719 L393.9078,-283.4719 L394.38876,-283.4719 L394.86975,-283.4719 L395.3507,-284.3032 L395.83167,-284.3032 L396.31262,-285.13446 L396.79358,-285.13446 L397.27454,-285.13446 L397.75552,-285.13446 L398.23648,-285.96576 L398.71744,-285.96576 L399.1984,-286.79706 L399.67935,-287.62836 L400.1603,-287.62836 L400.6413,-287.62836 L401.12225,-287.62836 L401.6032,-288.45966 L402.08417,-289.29095 L402.56512,-289.29095 L403.04608,-290.12225 L403.52707,-290.12225 L404.00803,-290.12225 L404.48898,-290.12225 L404.96994,-290.95355 L405.4509,-290.95355 L405.93185,-291.78485 L406.4128,-291.78485 L406.8938,-291.78485 L407.37476,-291.78485 L407.8557,-291.78485 L408.33667,-291.78485 L408.81763,-292.61615 L409.29858,-292.61615 L409.77957,-292.61615 L410.26053,-293.44742 L410.7415,-293.44742 L411.22244,-294.27872 L411.7034,-295.11002 L412.18436,-295.11002 L412.66534,-295.11002 L413.1463,-295.9413 L413.62726,-295.9413 L414.10822,-296.7726 L414.58917,-296.7726 L415.07013,-296.7726 L415.55112,-296.7726 L416.03207,-297.6039 L416.51303,-298.4352 L416.994,-298.4352 L417.47495,-299.2665 L417.9559,-299.2665 L418.43686,-299.2665 L418.91785,-300.0978 L419.3988,-300.9291 L419.87976,-300.9291 L420.36072,-301.76038 L420.84167,-301.76038 L421.32263,-302.59167 L421.80362,-302.59167 L422.28458,-302.59167 L422.76553,-303.42297 L423.2465,-304.25427 L423.72745,-304.25427 L424.2084,-304.25427 L424.6894,-305.08557 L425.17035,-305.08557 L425.6513,-305.08557 L426.13226,-305.08557 L426.61322,-305.91687 L427.09418,-305.91687 L427.57516,-305.91687 L428.05612,-305.91687 L428.53708,-305.91687 L429.01804,-306.74817 L429.499,-306.74817 L429.97995,-306.74817 L430.4609,-306.74817 L430.9419,-307.57947 L431.42285,-307.57947 L431.9038,-308.41077 L432.38477,-309.24207 L432.86572,-309.24207 L433.34668,-309.24207 L433.82767,-310.07336 L434.30862,-310.90463 L434.78958,-311.73593 L435.27054,-311.73593 L435.7515,-311.73593 L436.23245,-312.56723 L436.71344,-312.56723 L437.1944,-312.56723 L437.67535,-313.39853 L438.1563,-313.39853 L438.63727,-314.22983 L439.11823,-314.22983 L439.5992,-314.22983 L440.08017,-315.06113 L440.56113,-315.06113 L441.04208,-315.06113 L441.52304,-315.06113 L442.004,-315.89243 L442.48495,-315.89243 L442.96594,-315.89243 L443.4469,-316.72372 L443.92786,-316.72372 L444.4088,-317.55502 L444.88977,-317.55502 L445.37073,-318.38632 L445.8517,-318.38632 L446.33267,-318.38632 L446.81363,-318.38632 L447.2946,-318.38632 L447.77554,-319.2176 L448.2565,-319.2176 L448.7375,-319.2176 L449.21844,-319.2176 L449.6994,-319.2176 L450.18036,-319.2176 L450.66132,-320.0489 L451.14227,-320.0489 L451.62326,-320.0489 L452.10422,-320.8802 L452.58517,-320.8802 L453.06613,-320.8802 L453.5471,-321.7115 L454.02805,-321.7115 L454.50903,-321.7115 L454.99,-322.5428 L455.47095,-322.5428 L455.9519,-322.5428 L456.43286,-322.5428 L456.91382,-322.5428 L457.39478,-323.37408 L457.87576,-324.20538 L458.35672,-324.20538 L458.83768,-324.20538 L459.31863,-324.20538 L459.7996,-325.03668 L460.28055,-325.03668 L460.76154,-325.03668 L461.2425,-325.86798 L461.72345,-326.69928 L462.2044,-326.69928 L462.68536,-326.69928 L463.16632,-327.53055 L463.6473,-327.53055 L464.12827,-328.36185 L464.60922,-329.19315 L465.09018,-329.19315 L465.57114,-330.02444 L466.0521,-330.02444 L466.53308,-330.02444 L467.01404,-330.85574 L467.495,-330.85574 L467.97595,-330.85574 L468.4569,-330.85574 L468.93787,-330.85574 L469.41882,-331.68704 L469.8998,-332.51834 L470.38077,-333.34964 L470.86172,-333.34964 L471.34268,-334.18094 L471.82364,-334.18094 L472.3046,-334.18094 L472.78558,-335.01224 L473.26654,-335.01224 L473.7475,-335.01224 L474.22845,-335.01224 L474.7094,-335.8435 L475.19037,-335.8435 L475.67136,-336.6748 L476.1523,-336.6748 L476.63327,-337.5061 L477.11423,-338.3374 L477.59518,-338.3374 L478.07614,-338.3374 L478.55713,-339.1687 L479.0381,-339.1687 L479.51904,-339.1687 L480,-340" fill="none" stroke="#FF0000" stroke-linejoin="round" stroke-width="2"/>
</g>
</g>
<g transform="translate(380, -340)">
<text font-size="12" text-anchor="start" x="0" y="0">
generated resources
</text>
<line stroke="#FF0000" stroke-width="2" x1="-10" x2="-3" y1="-4" y2="-4"/>
</g>
<g>
<g>
<path d="M0,-0 L0,-0 L0.48096192,-0 L0.96192384,-0 L1.4428858,-0 L1.9238477,-0 L2.4048097,-0.83129585 L2.8857715,-0.83129585 L3.3667336,-0.83129585 L3.8476954,-1.6625917 L4.328657,-1.6625917 L4.8096194,-1.6625917 L5.290581,-2.4938874 L5.771543,-3.3251834 L6.252505,-3.3251834 L6.733467,-3.3251834 L7.214429,-3.3251834 L7.6953907,-4.1564794 L8.1763525,-4.1564794 L8.657314,-4.1564794 L9.138276,-4.987775 L9.619239,-5.819071 L10.100201,-5.819071 L10.581162,-5.819071 L11.062124,-5.819071 L11.543086,-6.650367 L12.024048,-6.650367 L12.50501,-7.4816628 L12.985972,-7.4816628 L13.466934,-7.4816628 L13.947896,-7.4816628 L14.428858,-7.4816628 L14.90982,-8.312959 L15.390781,-8.312959 L15.871743,-9.144255 L16.352705,-9.144255 L16.833668,-9.97555 L17.314629,-9.97555 L17.795591,-9.97555 L18.276552,-9.97555 L18.757515,-9.97555 L19.238478,-10.806846 L19.719439,-11.638142 L20.200401,-11.638142 L20.681362,-11.638142 L21.162325,-12.469438 L21.643286,-12.469438 L22.124249,-12.469438 L22.605211,-13.300734 L23.086172,-13.300734 L23.567135,-13.300734 L24.048096,-14.13203 L24.529058,-14.9633255 L25.01002,-15.794621 L25.490982,-15.794621 L25.971945,-16.625917 L26.452906,-16.625917 L26.933868,-16.625917 L27.41483,-17.457212 L27.895792,-18.28851 L28.376753,-18.28851 L28.857716,-18.28851 L29.338676,-18.28851 L29.81964,-19.119804 L30.300602,-19.119804 L30.781563,-19.119804 L31.262526,-19.9511 L31.743486,-19.9511 L32.22445,-19.9511 L32.70541,-19.9511 L33.18637,-20.782396 L33.667336,-20.782396 L34.148296,-20.782396 L34.629257,-20.782396 L35.11022,-21.613691 L35.591183,-21.613691 L36.072144,-21.613691 L36.553104,-22.444988 L37.03407,-22.444988 L37.51503,-22.444988 L37.99599,-23.276283 L38.476955,-23.276283 L38.957916,-23.276283 L39.438877,-23.276283 L39.919838,-23.276283 L40.400803,-24.10758 L40.881763,-24.938875 L41.362724,-24.938875 L41.84369,-24.938875 L42.32465,-24.938875 L42.80561,-24.938875 L43.28657,-24.938875 L43.767536,-25.77017 L44.248497,-25.77017 L44.729458,-25.77017 L45.210423,-25.77017 L45.691383,-26.601467 L46.172344,-26.601467 L46.653305,-26.601467 L47.13427,-26.601467 L47.61523,-26.601467 L48.09619,-27.432762 L48.577156,-27.432762 L49.058117,-27.432762 L49.539078,-28.26406 L50.02004,-28.26406 L50.501003,-28.26406 L50.981964,-28.26406 L51.462925,-29.095354 L51.94389,-29.095354 L52.42485,-29.926651 L52.90581,-29.926651 L53.386772,-29.926651 L53.867737,-29.926651 L54.348698,-29.926651 L54.82966,-29.926651 L55.31062,-29.926651 L55.791584,-29.926651 L56.272545,-30.757946 L56.753506,-30.757946 L57.23447,-31.589243 L57.71543,-31.589243 L58.196392,-32.420536 L58.677353,-32.420536 L59.158318,-33.251835 L59.63928,-33.251835 L60.12024,-34.08313 L60.601204,-34.08313 L61.082165,-34.914425 L61.563126,-34.914425 L62.044086,-35.74572 L62.52505,-35.74572 L63.006012,-35.74572 L63.486973,-36.57702 L63.967937,-36.57702 L64.4489,-36.57702 L64.92986,-36.57702 L65.41082,-36.57702 L65.891785,-37.408314 L66.37274,-37.408314 L66.85371,-37.408314 L67.33467,-38.23961 L67.81563,-38.23961 L68.29659,-38.23961 L68.77756,-38.23961 L69.258514,-39.070904 L69.73948,-39.070904 L70.22044,-39.070904 L70.7014,-39.9022 L71.182365,-40.733498 L71.66333,-40.733498 L72.14429,-40.733498 L72.62525,-41.564793 L73.10621,-41.564793 L73.58717,-42.396088 L74.06814,-42.396088 L74.549095,-42.396088 L75.03006,-42.396088 L75.511024,-42.396088 L75.99198,-43.227383 L76.472946,-43.227383 L76.95391,-44.05868 L77.43487,-44.05868 L77.91583,-44.05868 L78.3968,-44.05868 L78.877754,-44.889977 L79.35872,-44.889977 L79.839676,-45.72127 L80.32064,-45.72127 L80.801605,-45.72127 L81.28256,-45.72127 L81.76353,-45.72127 L82.24449,-45.72127 L82.72545,-45.72127 L83.20641,-46.552567 L83.68738,-46.552567 L84.168335,-46.552567 L84.6493,-46.552567 L85.130264,-46.552567 L85.61122,-47.38386 L86.092186,-47.38386 L86.57314,-48.21516 L87.05411,-48.21516 L87.53507,-48.21516 L88.01603,-49.046455 L88.496994,-49.046455 L88.97796,-49.87775 L89.458916,-49.87775 L89.93988,-50.709045 L90.420845,-50.709045 L90.9018,-50.709045 L91.38277,-51.54034 L91.86372,-51.54034 L92.34469,-52.37164 L92.82565,-52.37164 L93.30661,-52.37164 L93.787575,-52.37164 L94.26854,-52.37164 L94.7495,-53.202934 L95.23046,-54.03423 L95.711426,-54.03423 L96.19238,-54.03423 L96.67335,-54.03423 L97.15431,-54.03423 L97.63527,-54.865524 L98.116234,-54.865524 L98.59719,-55.696823 L99.078156,-55.696823 L99.55912,-55.696823 L100.04008,-55.696823 L100.52104,-56.52812 L101.00201,-57.359413 L101.48296,-57.359413 L101.96393,-58.19071 L102.44489,-58.19071 L102.92585,-59.022003 L103.406815,-59.022003 L103.88778,-59.022003 L104.36874,-59.853302 L104.8497,-59.853302 L105.33066,-60.684597 L105.81162,-60.684597 L106.29259,-60.684597 L106.773544,-61.515892 L107.25451,-61.515892 L107.73547,-61.515892 L108.21643,-62.347187 L108.697395,-62.347187 L109.17836,-63.178486 L109.65932,-63.178486 L110.14028,-64.00978 L110.62124,-64.00978 L111.1022,-64.00978 L111.58317,-64.00978 L112.064125,-64.84107 L112.54509,-64.84107 L113.026054,-64.84107 L113.50701,-65.67237 L113.987976,-65.67237 L114.46894,-65.67237 L114.9499,-66.50367 L115.43086,-66.50367 L115.91183,-67.33496 L116.392784,-67.33496 L116.87375,-67.33496 L117.354706,-68.16626 L117.83567,-68.99756 L118.316635,-68.99756 L118.79759,-68.99756 L119.27856,-68.99756 L119.75952,-69.82885 L120.24048,-69.82885 L120.72144,-69.82885 L121.20241,-69.82885 L121.683365,-70.66015 L122.16433,-70.66015 L122.645294,-70.66015 L123.12625,-70.66015 L123.607216,-70.66015 L124.08817,-70.66015 L124.56914,-71.49144 L125.0501,-71.49144 L125.53106,-71.49144 L126.012024,-72.32274 L126.49299,-72.32274 L126.973946,-72.32274 L127.45491,-72.32274 L127.935875,-72.32274 L128.41684,-73.15404 L128.8978,-73.15404 L129.37875,-73.15404 L129.85973,-73.98533 L130.34068,-73.98533 L130.82164,-73.98533 L131.30261,-73.98533 L131.78357,-73.98533 L132.26453,-74.81663 L132.74548,-74.81663 L133.22646,-75.64792 L133.70741,-75.64792 L134.18837,-75.64792 L134.66934,-76.47922 L135.1503,-76.47922 L135.63126,-76.47922 L136.11223,-77.31052 L136.59319,-78.14181 L137.07414,-78.14181 L137.55511,-78.14181 L138.03607,-78.14181 L138.51703,-78.97311 L138.998,-78.97311 L139.47896,-78.97311 L139.95992,-79.8044 L140.44089,-79.8044 L140.92184,-79.8044 L141.4028,-80.6357 L141.88377,-80.6357 L142.36473,-80.6357 L142.84569,-81.466995 L143.32666,-81.466995 L143.80762,-81.466995 L144.28857,-82.29829 L144.76955,-82.29829 L145.2505,-82.29829 L145.73146,-82.29829 L146.21242,-82.29829 L146.69339,-83.129585 L147.17435,-83.129585 L147.6553,-83.96088 L148.13628,-84.792175 L148.61723,-85.623474 L149.09819,-85.623474 L149.57916,-85.623474 L150.06012,-85.623474 L150.54108,-86.454765 L151.02205,-86.454765 L151.503,-87.286064 L151.98396,-87.286064 L152.46494,-88.11736 L152.94589,-88.11736 L153.42685,-88.11736 L153.90782,-88.948654 L154.38878,-88.948654 L154.86974,-89.77995 L155.35071,-89.77995 L155.83167,-89.77995 L156.31262,-90.611244 L156.7936,-90.611244 L157.27455,-90.611244 L157.75551,-90.611244 L158.23647,-91.44254 L158.71744,-91.44254 L159.1984,-91.44254 L159.67935,-91.44254 L160.16032,-91.44254 L160.64128,-92.27384 L161.12224,-92.27384 L161.60321,-93.10513 L162.08417,-93.10513 L162.56512,-93.10513 L163.0461,-93.10513 L163.52705,-93.93643 L164.00801,-93.93643 L164.48898,-93.93643 L164.96994,-94.76772 L165.4509,-94.76772 L165.93187,-94.76772 L166.41283,-94.76772 L166.89378,-95.59902 L167.37476,-95.59902 L167.85571,-95.59902 L168.33667,-95.59902 L168.81764,-96.43032 L169.2986,-97.26161 L169.77956,-97.26161 L170.26053,-97.26161 L170.74149,-98.09291 L171.22244,-98.9242 L171.7034,-98.9242 L172.18437,-98.9242 L172.66533,-98.9242 L173.14629,-99.7555 L173.62726,-99.7555 L174.10822,-99.7555 L174.58917,-99.7555 L175.07014,-99.7555 L175.5511,-99.7555 L176.03206,-100.5868 L176.51303,-100.5868 L176.99399,-101.41809 L177.47495,-101.41809 L177.95592,-101.41809 L178.43687,-102.24939 L178.91783,-102.24939 L179.3988,-102.24939 L179.87976,-102.24939 L180.36072,-102.24939 L180.84169,-102.24939 L181.32265,-102.24939 L181.8036,-103.08068 L182.28458,-103.08068 L182.76553,-103.08068 L183.24649,-103.91198 L183.72745,-103.91198 L184.20842,-103.91198 L184.68938,-104.74328 L185.17033,-104.74328 L185.6513,-104.74328 L186.13226,-105.57457 L186.61322,-105.57457 L187.0942,-106.40587 L187.57515,-106.40587 L188.0561,-106.40587 L188.53708,-106.40587 L189.01804,-107.23717 L189.499,-107.23717 L189.97997,-108.06846 L190.46092,-108.06846 L190.94188,-108.89976 L191.42285,-108.89976 L191.90381,-108.89976 L192.38477,-109.73105 L192.86574,-109.73105 L193.3467,-110.56235 L193.82765,-110.56235 L194.30862,-110.56235 L194.78958,-110.56235 L195.27054,-111.39365 L195.75151,-111.39365 L196.23247,-111.39365 L196.71342,-111.39365 L197.19438,-112.22494 L197.67535,-112.22494 L198.15631,-112.22494 L198.63727,-112.22494 L199.11824,-112.22494 L199.5992,-113.05624 L200.08015,-113.05624 L200.56113,-113.05624 L201.04208,-113.05624 L201.52304,-113.88753 L202.00401,-113.88753 L202.48497,-113.88753 L202.96593,-113.88753 L203.4469,-113.88753 L203.92786,-113.88753 L204.40881,-113.88753 L204.88979,-114.71883 L205.37074,-114.71883 L205.8517,-114.71883 L206.33267,-115.550125 L206.81363,-116.38142 L207.29459,-116.38142 L207.77556,-116.38142 L208.25652,-117.212715 L208.73747,-118.04401 L209.21843,-118.04401 L209.6994,-118.875305 L210.18036,-118.875305 L210.66132,-119.706604 L211.14229,-119.706604 L211.62325,-119.706604 L212.1042,-119.706604 L212.58517,-120.537895 L213.06613,-121.369194 L213.54709,-121.369194 L214.02806,-121.369194 L214.50902,-122.200485 L214.98997,-122.200485 L215.47095,-122.200485 L215.9519,-123.031784 L216.43286,-123.031784 L216.91383,-123.031784 L217.39479,-123.031784 L217.87575,-123.031784 L218.35672,-123.86308 L218.83768,-123.86308 L219.31863,-123.86308 L219.7996,-123.86308 L220.28056,-123.86308 L220.76152,-124.694374 L221.24248,-125.52567 L221.72345,-125.52567 L222.2044,-125.52567 L222.68536,-125.52567 L223.16634,-125.52567 L223.6473,-126.35697 L224.12825,-126.35697 L224.60922,-126.35697 L225.09018,-126.35697 L225.57114,-126.35697 L226.05211,-126.35697 L226.53307,-126.35697 L227.01402,-127.18826 L227.495,-127.18826 L227.97595,-128.01956 L228.45691,-128.85086 L228.93788,-129.68214 L229.41884,-129.68214 L229.8998,-129.68214 L230.38077,-130.51344 L230.86172,-131.34474 L231.34268,-131.34474 L231.82365,-131.34474 L232.30461,-132.17604 L232.78557,-133.00734 L233.26654,-133.00734 L233.7475,-133.00734 L234.22845,-133.83864 L234.70941,-133.83864 L235.19038,-134.66992 L235.67134,-134.66992 L236.1523,-135.50122 L236.63327,-135.50122 L237.11423,-135.50122 L237.59518,-136.33252 L238.07616,-137.16382 L238.55711,-137.99512 L239.03807,-137.99512 L239.51904,-138.8264 L240,-138.8264 L240.48096,-138.8264 L240.96193,-138.8264 L241.44289,-139.6577 L241.92384,-139.6577 L242.40482,-140.489 L242.88577,-140.489 L243.36673,-140.489 L243.8477,-140.489 L244.32866,-140.489 L244.80962,-141.3203 L245.29059,-141.3203 L245.77155,-142.1516 L246.2525,-142.98288 L246.73346,-142.98288 L247.21443,-143.81418 L247.69539,-143.81418 L248.17635,-143.81418 L248.65732,-144.64548 L249.13828,-144.64548 L249.61923,-145.47678 L250.1002,-145.47678 L250.58116,-145.47678 L251.06212,-145.47678 L251.54309,-145.47678 L252.02405,-146.30807 L252.505,-146.30807 L252.98598,-146.30807 L253.46693,-146.30807 L253.94789,-146.30807 L254.42886,-146.30807 L254.90982,-147.13936 L255.39078,-147.13936 L255.87175,-147.13936 L256.3527,-147.97066 L256.83368,-147.97066 L257.31464,-147.97066 L257.7956,-147.97066 L258.27655,-147.97066 L258.7575,-147.97066 L259.23846,-148.80196 L259.71945,-148.80196 L260.2004,-148.80196 L260.68137,-149.63326 L261.16232,-149.63326 L261.64328,-149.63326 L262.12424,-149.63326 L262.60522,-150.46455 L263.08618,-150.46455 L263.56714,-150.46455 L264.0481,-151.29584 L264.52905,-151.29584 L265.01,-151.29584 L265.49097,-151.29584 L265.97195,-152.12714 L266.4529,-152.12714 L266.93387,-152.12714 L267.41483,-152.12714 L267.89578,-152.12714 L268.37674,-152.12714 L268.85773,-152.95844 L269.33868,-152.95844 L269.81964,-152.95844 L270.3006,-153.78973 L270.78156,-154.62103 L271.2625,-154.62103 L271.7435,-154.62103 L272.22446,-154.62103 L272.7054,-155.45232 L273.18637,-156.28362 L273.66733,-156.28362 L274.1483,-157.11491 L274.62927,-157.11491 L275.11023,-157.94621 L275.5912,-157.94621 L276.07214,-158.77751 L276.5531,-159.6088 L277.03406,-159.6088 L277.51505,-159.6088 L277.996,-159.6088 L278.47696,-160.4401 L278.95792,-161.2714 L279.43887,-162.10269 L279.91983,-162.10269 L280.4008,-162.93399 L280.88177,-162.93399 L281.36273,-162.93399 L281.8437,-162.93399 L282.32465,-162.93399 L282.8056,-163.76527 L283.28656,-164.59657 L283.76755,-164.59657 L284.2485,-164.59657 L284.72946,-164.59657 L285.21042,-165.42787 L285.69138,-165.42787 L286.17233,-166.25917 L286.65332,-166.25917 L287.13428,-167.09047 L287.61523,-167.09047 L288.0962,-167.09047 L288.57715,-167.09047 L289.0581,-167.92175 L289.5391,-167.92175 L290.02005,-167.92175 L290.501,-168.75305 L290.98196,-168.75305 L291.46292,-168.75305 L291.94388,-168.75305 L292.42484,-169.58435 L292.90582,-169.58435 L293.38678,-169.58435 L293.86774,-170.41565 L294.3487,-170.41565 L294.82965,-170.41565 L295.3106,-170.41565 L295.7916,-171.24695 L296.27255,-172.07825 L296.7535,-172.07825 L297.23447,-172.07825 L297.71542,-172.07825 L298.19638,-172.90953 L298.67737,-172.90953 L299.15833,-173.74083 L299.63928,-173.74083 L300.12024,-174.57213 L300.6012,-174.57213 L301.08215,-174.57213 L301.56314,-174.57213 L302.0441,-174.57213 L302.52505,-175.40343 L303.006,-175.40343 L303.48697,-176.23473 L303.96793,-176.23473 L304.44888,-177.06601 L304.92987,-177.06601 L305.41083,-177.06601 L305.89178,-177.06601 L306.37274,-177.89731 L306.8537,-177.89731 L307.33466,-178.7286 L307.81564,-178.7286 L308.2966,-179.5599 L308.77756,-179.5599 L309.2585,-179.5599 L309.73947,-179.5599 L310.22043,-180.3912 L310.70142,-180.3912 L311.18237,-180.3912 L311.66333,-180.3912 L312.1443,-180.3912 L312.62524,-181.22249 L313.1062,-181.22249 L313.5872,-182.05379 L314.06815,-182.05379 L314.5491,-182.05379 L315.03006,-182.05379 L315.51102,-182.05379 L315.99197,-182.88509 L316.47293,-182.88509 L316.95392,-182.88509 L317.43488,-182.88509 L317.91583,-182.88509 L318.3968,-183.71638 L318.87775,-183.71638 L319.3587,-184.54768 L319.8397,-184.54768 L320.32065,-184.54768 L320.8016,-185.37897 L321.28256,-185.37897 L321.76352,-185.37897 L322.24448,-185.37897 L322.72546,-186.21027 L323.20642,-186.21027 L323.68738,-186.21027 L324.16833,-187.04156 L324.6493,-187.04156 L325.13025,-187.87286 L325.61124,-187.87286 L326.0922,-188.70416 L326.57315,-189.53545 L327.0541,-189.53545 L327.53506,-189.53545 L328.01602,-189.53545 L328.49698,-189.53545 L328.97797,-190.36674 L329.45892,-191.19804 L329.93988,-191.19804 L330.42084,-191.19804 L330.9018,-191.19804 L331.38275,-191.19804 L331.86374,-191.19804 L332.3447,-192.02934 L332.82565,-192.86064 L333.3066,-192.86064 L333.78757,-192.86064 L334.26852,-193.69193 L334.7495,-193.69193 L335.23047,-194.52322 L335.71143,-194.52322 L336.19238,-194.52322 L336.67334,-194.52322 L337.1543,-195.35452 L337.63528,-195.35452 L338.11624,-195.35452 L338.5972,-196.18582 L339.07816,-196.18582 L339.5591,-196.18582 L340.04007,-196.18582 L340.52106,-196.18582 L341.002,-196.18582 L341.48297,-197.01712 L341.96393,-197.01712 L342.4449,-197.01712 L342.92584,-197.8484 L343.4068,-197.8484 L343.8878,-197.8484 L344.36874,-197.8484 L344.8497,-198.6797 L345.33066,-198.6797 L345.8116,-199.511 L346.29257,-199.511 L346.77356,-199.511 L347.25452,-199.511 L347.73547,-200.3423 L348.21643,-200.3423 L348.6974,-200.3423 L349.17834,-201.1736 L349.65933,-201.1736 L350.1403,-201.1736 L350.62125,-202.00488 L351.1022,-202.00488 L351.58316,-202.00488 L352.06412,-202.83618 L352.5451,-202.83618 L353.02606,-203.66748 L353.50702,-204.49878 L353.98798,-204.49878 L354.46893,-205.33008 L354.9499,-205.33008 L355.43085,-205.33008 L355.91183,-205.33008 L356.3928,-206.16136 L356.87375,-206.16136 L357.3547,-206.16136 L357.83566,-206.99266 L358.31662,-206.99266 L358.7976,-206.99266 L359.27856,-207.82396 L359.75952,-208.65526 L360.24048,-208.65526 L360.72144,-209.48656 L361.2024,-210.31786 L361.68338,-210.31786 L362.16434,-210.31786 L362.6453,-211.14914 L363.12625,-211.98044 L363.6072,-211.98044 L364.08817,-211.98044 L364.56915,-212.81174 L365.0501,-213.64304 L365.53107,-213.64304 L366.01202,-213.64304 L366.49298,-213.64304 L366.97394,-213.64304 L367.4549,-213.64304 L367.93588,-214.47433 L368.41684,-214.47433 L368.8978,-214.47433 L369.37875,-215.30562 L369.8597,-215.30562 L370.34067,-215.30562 L370.82166,-216.13692 L371.3026,-216.13692 L371.78357,-216.13692 L372.26453,-216.96822 L372.74548,-217.79951 L373.22644,-217.79951 L373.70743,-217.79951 L374.1884,-217.79951 L374.66934,-218.63081 L375.1503,-218.63081 L375.63126,-218.63081 L376.1122,-218.63081 L376.5932,-218.63081 L377.07416,-219.4621 L377.5551,-219.4621 L378.03607,-219.4621 L378.51703,-219.4621 L378.998,-219.4621 L379.47894,-220.2934 L379.95993,-220.2934 L380.4409,-221.1247 L380.92184,-221.1247 L381.4028,-221.1247 L381.88376,-221.956 L382.36472,-221.956 L382.8457,-222.7873 L383.32666,-222.7873 L383.80762,-222.7873 L384.28857,-222.7873 L384.76953,-223.61858 L385.2505,-223.61858 L385.73148,-223.61858 L386.21243,-223.61858 L386.6934,-224.44987 L387.17435,-224.44987 L387.6553,-225.28117 L388.13626,-225.28117 L388.61725,-226.11247 L389.0982,-226.11247 L389.57916,-226.11247 L390.06012,-226.11247 L390.54108,-226.94377 L391.02203,-226.94377 L391.50302,-226.94377 L391.98398,-227.77505 L392.46494,-227.77505 L392.9459,-227.77505 L393.42685,-227.77505 L393.9078,-227.77505 L394.38876,-228.60635 L394.86975,-228.60635 L395.3507,-228.60635 L395.83167,-228.60635 L396.31262,-228.60635 L396.79358,-229.43765 L397.27454,-229.43765 L397.75552,-230.26895 L398.23648,-231.10025 L398.71744,-231.10025 L399.1984,-231.10025 L399.67935,-231.10025 L400.1603,-231.10025 L400.6413,-231.10025 L401.12225,-231.93153 L401.6032,-231.93153 L402.08417,-231.93153 L402.56512,-231.93153 L403.04608,-231.93153 L403.52707,-232.76283 L404.00803,-232.76283 L404.48898,-233.59413 L404.96994,-234.42543 L405.4509,-234.42543 L405.93185,-234.42543 L406.4128,-234.42543 L406.8938,-235.25673 L407.37476,-236.08801 L407.8557,-236.91931 L408.33667,-236.91931 L408.81763,-236.91931 L409.29858,-237.75061 L409.77957,-237.75061 L410.26053,-237.75061 L410.7415,-238.58191 L411.22244,-238.58191 L411.7034,-238.58191 L412.18436,-238.58191 L412.66534,-238.58191 L413.1463,-238.58191 L413.62726,-238.58191 L414.10822,-239.41321 L414.58917,-239.41321 L415.07013,-240.24449 L415.55112,-240.24449 L416.03207,-240.24449 L416.51303,-241.07579 L416.994,-241.07579 L417.47495,-241.90709 L417.9559,-241.90709 L418.43686,-241.90709 L418.91785,-241.90709 L419.3988,-241.90709 L419.87976,-242.73839 L420.36072,-243.56969 L420.84167,-243.56969 L421.32263,-244.40097 L421.80362,-244.40097 L422.28458,-244.40097 L422.76553,-244.40097 L423.2465,-244.40097 L423.72745,-245.23227 L424.2084,-245.23227 L424.6894,-245.23227 L425.17035,-245.23227 L425.6513,-245.23227 L426.13226,-246.06357 L426.61322,-246.06357 L427.09418,-246.89487 L427.57516,-246.89487 L428.05612,-246.89487 L428.53708,-247.72617 L429.01804,-247.72617 L429.499,-247.72617 L429.97995,-248.55746 L430.4609,-248.55746 L430.9419,-248.55746 L431.42285,-249.38875 L431.9038,-249.38875 L432.38477,-249.38875 L432.86572,-250.22005 L433.34668,-250.22005 L433.82767,-250.22005 L434.30862,-250.22005 L434.78958,-251.05135 L435.27054,-251.05135 L435.7515,-251.05135 L436.23245,-251.88264 L436.71344,-251.88264 L437.1944,-251.88264 L437.67535,-252.71394 L438.1563,-252.71394 L438.63727,-252.71394 L439.11823,-252.71394 L439.5992,-252.71394 L440.08017,-253.54523 L440.56113,-253.54523 L441.04208,-254.37653 L441.52304,-254.37653 L442.004,-254.37653 L442.48495,-254.37653 L442.96594,-254.37653 L443.4469,-254.37653 L443.92786,-255.20782 L444.4088,-255.20782 L444.88977,-255.20782 L445.37073,-255.20782 L445.8517,-255.20782 L446.33267,-255.20782 L446.81363,-255.20782 L447.2946,-256.03912 L447.77554,-256.03912 L448.2565,-256.03912 L448.7375,-256.03912 L449.21844,-256.03912 L449.6994,-256.87042 L450.18036,-256.87042 L450.66132,-256.87042 L451.14227,-257.70172 L451.62326,-257.70172 L452.10422,-257.70172 L452.58517,-258.53302 L453.06613,-258.53302 L453.5471,-258.53302 L454.02805,-258.53302 L454.50903,-258.53302 L454.99,-259.3643 L455.47095,-260.1956 L455.9519,-260.1956 L456.43286,-260.1956 L456.91382,-260.1956 L457.39478,-260.1956 L457.87576,-260.1956 L458.35672,-261.0269 L458.83768,-261.0269 L459.31863,-261.8582 L459.7996,-261.8582 L460.28055,-261.8582 L460.76154,-262.68948 L461.2425,-262.68948 L461.72345,-262.68948 L462.2044,-262.68948 L462.68536,-262.68948 L463.16632,-263.52078 L463.6473,-263.52078 L464.12827,-263.52078 L464.60922,-264.35208 L465.09018,-264.35208 L465.57114,-265.18338 L466.0521,-266.01468 L466.53308,-266.01468 L467.01404,-266.01468 L467.495,-266.01468 L467.97595,-266.84598 L468.4569,-266.84598 L468.93787,-266.84598 L469.41882,-266.84598 L469.8998,-267.67728 L470.38077,-267.67728 L470.86172,-268.50854 L471.34268,-268.50854 L471.82364,-268.50854 L472.3046,-269.33984 L472.78558,-270.17114 L473.26654,-271.00244 L473.7475,-271.00244 L474.22845,-271.00244 L474.7094,-271.00244 L475.19037,-271.00244 L475.67136,-271.00244 L476.1523,-271.83374 L476.63327,-271.83374 L477.11423,-271.83374 L477.59518,-271.83374 L478.07614,-271.83374 L478.55713,-272.66504 L479.0381,-272.66504 L479.51904,-273.49634 L480,-273.49634" fill="none" stroke="#F6FF00" stroke-linejoin="round" stroke-width="2"/>
</g>
</g>
<g transform="translate(380, -322)">
<text font-size="12" text-anchor="start" x="0" y="0">
served resources
</text>
<line stroke="#F6FF00" stroke-width="2" x1="-10" x2="-3" y1="-4" y2="-4"/>
</g>
<g>
<g>
<path d="M0,-0 L0,-0 L0.48096192,-0 L0.96192384,-0 L1.4428858,-0 L1.9238477,-0 L2.4048097,-0 L2.8857715,-0 L3.3667336,-0 L3.8476954,-0 L4.328657,-0 L4.8096194,-0 L5.290581,-0 L5.771543,-0 L6.252505,-0 L6.733467,-0 L7.214429,-0 L7.6953907,-0 L8.1763525,-0 L8.657314,-0 L9.138276,-0 L9.619239,-0 L10.100201,-0 L10.581162,-0 L11.062124,-0 L11.543086,-0 L12.024048,-0 L12.50501,-0 L12.985972,-0 L13.466934,-0 L13.947896,-0 L14.428858,-0 L14.90982,-0 L15.390781,-0 L15.871743,-0 L16.352705,-0 L16.833668,-0 L17.314629,-0 L17.795591,-0 L18.276552,-0 L18.757515,-0 L19.238478,-0 L19.719439,-0 L20.200401,-0 L20.681362,-0 L21.162325,-0 L21.643286,-0 L22.124249,-0 L22.605211,-0 L23.086172,-0 L23.567135,-0 L24.048096,-0 L24.529058,-0 L25.01002,-0 L25.490982,-0 L25.971945,-0 L26.452906,-0 L26.933868,-0 L27.41483,-0 L27.895792,-0 L28.376753,-0 L28.857716,-0 L29.338676,-0 L29.81964,-0 L30.300602,-0 L30.781563,-0 L31.262526,-0 L31.743486,-0 L32.22445,-0 L32.70541,-0 L33.18637,-0 L33.667336,-0 L34.148296,-0 L34.629257,-0 L35.11022,-0 L35.591183,-0 L36.072144,-0 L36.553104,-0 L37.03407,-0 L37.51503,-0 L37.99599,-0 L38.476955,-0 L38.957916,-0 L39.438877,-0 L39.919838,-0 L40.400803,-0 L40.881763,-0 L41.362724,-0 L41.84369,-0 L42.32465,-0 L42.80561,-0 L43.28657,-0 L43.767536,-0 L44.248497,-0 L44.729458,-0 L45.210423,-0 L45.691383,-0 L46.172344,-0 L46.653305,-0 L47.13427,-0 L47.61523,-0 L48.09619,-0 L48.577156,-0 L49.058117,-0 L49.539078,-0 L50.02004,-0 L50.501003,-0 L50.981964,-0 L51.462925,-0 L51.94389,-0 L52.42485,-0 L52.90581,-0 L53.386772,-0 L53.867737,-0 L54.348698,-0 L54.82966,-0 L55.31062,-0 L55.791584,-0.83129585 L56.272545,-0.83129585 L56.753506,-0.83129585 L57.23447,-0.83129585 L57.71543,-0.83129585 L58.196392,-0.83129585 L58.677353,-0.83129585 L59.158318,-0.83129585 L59.63928,-0.83129585 L60.12024,-0.83129585 L60.601204,-0.83129585 L61.082165,-0.83129585 L61.563126,-0.83129585 L62.044086,-0.83129585 L62.52505,-0.83129585 L63.006012,-0.83129585 L63.486973,-0.83129585 L63.967937,-0.83129585 L64.4489,-0.83129585 L64.92986,-0.83129585 L65.41082,-0.83129585 L65.891785,-0.83129585 L66.37274,-0.83129585 L66.85371,-0.83129585 L67.33467,-0.83129585 L67.81563,-0.83129585 L68.29659,-0.83129585 L68.77756,-0.83129585 L69.258514,-0.83129585 L69.73948,-0.83129585 L70.22044,-0.83129585 L70.7014,-0.83129585 L71.182365,-0.83129585 L71.66333,-0.83129585 L72.14429,-0.83129585 L72.62525,-0.83129585 L73.10621,-0.83129585 L73.58717,-0.83129585 L74.06814,-0.83129585 L74.549095,-0.83129585 L75.03006,-0.83129585 L75.511024,-0.83129585 L75.99198,-0.83129585 L76.472946,-0.83129585 L76.95391,-0.83129585 L77.43487,-0.83129585 L77.91583,-0.83129585 L78.3968,-0.83129585 L78.877754,-0.83129585 L79.35872,-0.83129585 L79.839676,-0.83129585 L80.32064,-0.83129585 L80.801605,-0.83129585 L81.28256,-0.83129585 L81.76353,-0.83129585 L82.24449,-1.6625917 L82.72545,-1.6625917 L83.20641,-2.4938874 L83.68738,-2.4938874 L84.168335,-2.4938874 L84.6493,-2.4938874 L85.130264,-2.4938874 L85.61122,-3.3251834 L86.092186,-3.3251834 L86.57314,-4.1564794 L87.05411,-4.1564794 L87.53507,-4.1564794 L88.01603,-4.987775 L88.496994,-4.987775 L88.97796,-4.987775 L89.458916,-4.987775 L89.93988,-4.987775 L90.420845,-4.987775 L90.9018,-4.987775 L91.38277,-4.987775 L91.86372,-4.987775 L92.34469,-4.987775 L92.82565,-4.987775 L93.30661,-4.987775 L93.787575,-4.987775 L94.26854,-4.987775 L94.7495,-4.987775 L95.23046,-4.987775 L95.711426,-4.987775 L96.19238,-4.987775 L96.67335,-4.987775 L97.15431,-4.987775 L97.63527,-5.819071 L98.116234,-5.819071 L98.59719,-5.819071 L99.078156,-5.819071 L99.55912,-5.819071 L100.04008,-5.819071 L100.52104,-6.650367 L101.00201,-6.650367 L101.48296,-6.650367 L101.96393,-6.650367 L102.44489,-6.650367 L102.92585,-6.650367 L103.406815,-6.650367 L103.88778,-6.650367 L104.36874,-6.650367 L104.8497,-6.650367 L105.33066,-6.650367 L105.81162,-6.650367 L106.29259,-6.650367 L106.773544,-6.650367 L107.25451,-6.650367 L107.73547,-6.650367 L108.21643,-6.650367 L108.697395,-6.650367 L109.17836,-6.650367 L109.65932,-6.650367 L110.14028,-6.650367 L110.62124,-6.650367 L111.1022,-6.650367 L111.58317,-6.650367 L112.064125,-6.650367 L112.54509,-6.650367 L113.026054,-6.650367 L113.50701,-6.650367 L113.987976,-6.650367 L114.46894,-6.650367 L114.9499,-6.650367 L115.43086,-6.650367 L115.91183,-6.650367 L116.392784,-6.650367 L116.87375,-6.650367 L117.354706,-6.650367 L117.83567,-6.650367 L118.316635,-6.650367 L118.79759,-6.650367 L119.27856,-6.650367 L119.75952,-6.650367 L120.24048,-6.650367 L120.72144,-6.650367 L121.20241,-6.650367 L121.683365,-6.650367 L122.16433,-6.650367 L122.645294,-6.650367 L123.12625,-6.650367 L123.607216,-6.650367 L124.08817,-6.650367 L124.56914,-6.650367 L125.0501,-6.650367 L125.53106,-6.650367 L126.012024,-6.650367 L126.49299,-6.650367 L126.973946,-6.650367 L127.45491,-6.650367 L127.935875,-7.4816628 L128.41684,-7.4816628 L128.8978,-7.4816628 L129.37875,-7.4816628 L129.85973,-7.4816628 L130.34068,-7.4816628 L130.82164,-7.4816628 L131.30261,-7.4816628 L131.78357,-8.312959 L132.26453,-9.144255 L132.74548,-9.144255 L133.22646,-9.144255 L133.70741,-9.144255 L134.18837,-9.144255 L134.66934,-9.144255 L135.1503,-9.144255 L135.63126,-9.144255 L136.11223,-9.144255 L136.59319,-9.144255 L137.07414,-9.144255 L137.55511,-9.144255 L138.03607,-9.144255 L138.51703,-9.144255 L138.998,-9.144255 L139.47896,-9.144255 L139.95992,-9.144255 L140.44089,-9.144255 L140.92184,-9.144255 L141.4028,-9.144255 L141.88377,-9.144255 L142.36473,-9.144255 L142.84569,-9.144255 L143.32666,-9.144255 L143.80762,-9.144255 L144.28857,-9.144255 L144.76955,-9.144255 L145.2505,-9.144255 L145.73146,-9.144255 L146.21242,-9.97555 L146.69339,-9.97555 L147.17435,-9.97555 L147.6553,-9.97555 L148.13628,-9.97555 L148.61723,-9.97555 L149.09819,-9.97555 L149.57916,-9.97555 L150.06012,-9.97555 L150.54108,-9.97555 L151.02205,-9.97555 L151.503,-9.97555 L151.98396,-9.97555 L152.46494,-9.97555 L152.94589,-9.97555 L153.42685,-9.97555 L153.90782,-9.97555 L154.38878,-9.97555 L154.86974,-9.97555 L155.35071,-9.97555 L155.83167,-9.97555 L156.31262,-9.97555 L156.7936,-9.97555 L157.27455,-9.97555 L157.75551,-9.97555 L158.23647,-9.97555 L158.71744,-9.97555 L159.1984,-9.97555 L159.67935,-9.97555 L160.16032,-9.97555 L160.64128,-9.97555 L161.12224,-9.97555 L161.60321,-9.97555 L162.08417,-9.97555 L162.56512,-9.97555 L163.0461,-9.97555 L163.52705,-9.97555 L164.00801,-9.97555 L164.48898,-9.97555 L164.96994,-9.97555 L165.4509,-9.97555 L165.93187,-9.97555 L166.41283,-9.97555 L166.89378,-9.97555 L167.37476,-9.97555 L167.85571,-9.97555 L168.33667,-9.97555 L168.81764,-9.97555 L169.2986,-9.97555 L169.77956,-9.97555 L170.26053,-9.97555 L170.74149,-9.97555 L171.22244,-9.97555 L171.7034,-9.97555 L172.18437,-9.97555 L172.66533,-9.97555 L173.14629,-9.97555 L173.62726,-9.97555 L174.10822,-9.97555 L174.58917,-9.97555 L175.07014,-9.97555 L175.5511,-9.97555 L176.03206,-9.97555 L176.51303,-9.97555 L176.99399,-9.97555 L177.47495,-9.97555 L177.95592,-9.97555 L178.43687,-9.97555 L178.91783,-9.97555 L179.3988,-9.97555 L179.87976,-9.97555 L180.36072,-9.97555 L180.84169,-9.97555 L181.32265,-9.97555 L181.8036,-10.806846 L182.28458,-10.806846 L182.76553,-10.806846 L183.24649,-10.806846 L183.72745,-10.806846 L184.20842,-10.806846 L184.68938,-10.806846 L185.17033,-10.806846 L185.6513,-10.806846 L186.13226,-10.806846 L186.61322,-10.806846 L187.0942,-10.806846 L187.57515,-10.806846 L188.0561,-11.638142 L188.53708,-11.638142 L189.01804,-11.638142 L189.499,-11.638142 L189.97997,-11.638142 L190.46092,-11.638142 L190.94188,-12.469438 L191.42285,-12.469438 L191.90381,-12.469438 L192.38477,-12.469438 L192.86574,-12.469438 L193.3467,-13.300734 L193.82765,-13.300734 L194.30862,-13.300734 L194.78958,-13.300734 L195.27054,-14.13203 L195.75151,-14.13203 L196.23247,-14.13203 L196.71342,-14.13203 L197.19438,-14.13203 L197.67535,-14.13203 L198.15631,-14.9633255 L198.63727,-14.9633255 L199.11824,-14.9633255 L199.5992,-14.9633255 L200.08015,-14.9633255 L200.56113,-15.794621 L201.04208,-15.794621 L201.52304,-16.625917 L202.00401,-16.625917 L202.48497,-16.625917 L202.96593,-16.625917 L203.4469,-16.625917 L203.92786,-17.457212 L204.40881,-17.457212 L204.88979,-18.28851 L205.37074,-18.28851 L205.8517,-18.28851 L206.33267,-18.28851 L206.81363,-18.28851 L207.29459,-18.28851 L207.77556,-18.28851 L208.25652,-18.28851 L208.73747,-18.28851 L209.21843,-18.28851 L209.6994,-18.28851 L210.18036,-18.28851 L210.66132,-18.28851 L211.14229,-18.28851 L211.62325,-18.28851 L212.1042,-18.28851 L212.58517,-18.28851 L213.06613,-18.28851 L213.54709,-18.28851 L214.02806,-18.28851 L214.50902,-18.28851 L214.98997,-18.28851 L215.47095,-18.28851 L215.9519,-18.28851 L216.43286,-18.28851 L216.91383,-18.28851 L217.39479,-18.28851 L217.87575,-18.28851 L218.35672,-18.28851 L218.83768,-18.28851 L219.31863,-18.28851 L219.7996,-18.28851 L220.28056,-18.28851 L220.76152,-18.28851 L221.24248,-18.28851 L221.72345,-18.28851 L222.2044,-18.28851 L222.68536,-18.28851 L223.16634,-18.28851 L223.6473,-18.28851 L224.12825,-18.28851 L224.60922,-18.28851 L225.09018,-19.119804 L225.57114,-19.119804 L226.05211,-19.119804 L226.53307,-19.9511 L227.01402,-19.9511 L227.495,-19.9511 L227.97595,-19.9511 L228.45691,-19.9511 L228.93788,-19.9511 L229.41884,-19.9511 L229.8998,-19.9511 L230.38077,-19.9511 L230.86172,-19.9511 L231.34268,-19.9511 L231.82365,-19.9511 L232.30461,-19.9511 L232.78557,-19.9511 L233.26654,-19.9511 L233.7475,-19.9511 L234.22845,-19.9511 L234.70941,-19.9511 L235.19038,-19.9511 L235.67134,-19.9511 L236.1523,-19.9511 L236.63327,-19.9511 L237.11423,-19.9511 L237.59518,-19.9511 L238.07616,-19.9511 L238.55711,-19.9511 L239.03807,-19.9511 L239.51904,-19.9511 L240,-19.9511 L240.48096,-19.9511 L240.96193,-19.9511 L241.44289,-19.9511 L241.92384,-19.9511 L242.40482,-19.9511 L242.88577,-19.9511 L243.36673,-19.9511 L243.8477,-19.9511 L244.32866,-19.9511 L244.80962,-19.9511 L245.29059,-19.9511 L245.77155,-19.9511 L246.2525,-19.9511 L246.73346,-19.9511 L247.21443,-19.9511 L247.69539,-19.9511 L248.17635,-19.9511 L248.65732,-19.9511 L249.13828,-19.9511 L249.61923,-19.9511 L250.1002,-19.9511 L250.58116,-19.9511 L251.06212,-19.9511 L251.54309,-19.9511 L252.02405,-19.9511 L252.505,-19.9511 L252.98598,-19.9511 L253.46693,-19.9511 L253.94789,-20.782396 L254.42886,-20.782396 L254.90982,-21.613691 L255.39078,-21.613691 L255.87175,-22.444988 L256.3527,-22.444988 L256.83368,-22.444988 L257.31464,-22.444988 L257.7956,-23.276283 L258.27655,-24.10758 L258.7575,-24.10758 L259.23846,-24.938875 L259.71945,-24.938875 L260.2004,-24.938875 L260.68137,-24.938875 L261.16232,-24.938875 L261.64328,-25.77017 L262.12424,-25.77017 L262.60522,-26.601467 L263.08618,-26.601467 L263.56714,-26.601467 L264.0481,-26.601467 L264.52905,-26.601467 L265.01,-26.601467 L265.49097,-26.601467 L265.97195,-27.432762 L266.4529,-27.432762 L266.93387,-27.432762 L267.41483,-27.432762 L267.89578,-27.432762 L268.37674,-28.26406 L268.85773,-28.26406 L269.33868,-28.26406 L269.81964,-29.095354 L270.3006,-29.095354 L270.78156,-29.095354 L271.2625,-29.095354 L271.7435,-29.095354 L272.22446,-29.095354 L272.7054,-29.095354 L273.18637,-29.095354 L273.66733,-29.095354 L274.1483,-29.095354 L274.62927,-29.095354 L275.11023,-29.095354 L275.5912,-29.095354 L276.07214,-29.095354 L276.5531,-29.095354 L277.03406,-29.095354 L277.51505,-29.095354 L277.996,-29.095354 L278.47696,-29.095354 L278.95792,-29.095354 L279.43887,-29.095354 L279.91983,-29.095354 L280.4008,-29.095354 L280.88177,-29.095354 L281.36273,-29.095354 L281.8437,-29.095354 L282.32465,-29.095354 L282.8056,-29.095354 L283.28656,-29.095354 L283.76755,-29.095354 L284.2485,-29.095354 L284.72946,-29.095354 L285.21042,-29.095354 L285.69138,-29.095354 L286.17233,-29.095354 L286.65332,-29.095354 L287.13428,-29.095354 L287.61523,-29.095354 L288.0962,-29.095354 L288.57715,-29.095354 L289.0581,-29.095354 L289.5391,-29.095354 L290.02005,-29.095354 L290.501,-29.095354 L290.98196,-29.095354 L291.46292,-29.095354 L291.94388,-29.095354 L292.42484,-29.095354 L292.90582,-29.095354 L293.38678,-29.095354 L293.86774,-29.095354 L294.3487,-29.095354 L294.82965,-29.095354 L295.3106,-29.095354 L295.7916,-29.095354 L296.27255,-29.095354 L296.7535,-29.095354 L297.23447,-29.095354 L297.71542,-29.095354 L298.19638,-29.095354 L298.67737,-29.095354 L299.15833,-29.095354 L299.63928,-29.095354 L300.12024,-29.926651 L300.6012,-29.926651 L301.08215,-29.926651 L301.56314,-29.926651 L302.0441,-29.926651 L302.52505,-30.757946 L303.006,-30.757946 L303.48697,-30.757946 L303.96793,-30.757946 L304.44888,-30.757946 L304.92987,-30.757946 L305.41083,-30.757946 L305.89178,-30.757946 L306.37274,-30.757946 L306.8537,-30.757946 L307.33466,-30.757946 L307.81564,-30.757946 L308.2966,-30.757946 L308.77756,-30.757946 L309.2585,-30.757946 L309.73947,-30.757946 L310.22043,-30.757946 L310.70142,-30.757946 L311.18237,-30.757946 L311.66333,-30.757946 L312.1443,-31.589243 L312.62524,-31.589243 L313.1062,-31.589243 L313.5872,-31.589243 L314.06815,-31.589243 L314.5491,-31.589243 L315.03006,-31.589243 L315.51102,-31.589243 L315.99197,-32.420536 L316.47293,-32.420536 L316.95392,-32.420536 L317.43488,-32.420536 L317.91583,-32.420536 L318.3968,-32.420536 L318.87775,-32.420536 L319.3587,-32.420536 L319.8397,-32.420536 L320.32065,-32.420536 L320.8016,-32.420536 L321.28256,-32.420536 L321.76352,-32.420536 L322.24448,-32.420536 L322.72546,-32.420536 L323.20642,-32.420536 L323.68738,-32.420536 L324.16833,-32.420536 L324.6493,-32.420536 L325.13025,-32.420536 L325.61124,-32.420536 L326.0922,-32.420536 L326.57315,-32.420536 L327.0541,-32.420536 L327.53506,-32.420536 L328.01602,-32.420536 L328.49698,-32.420536 L328.97797,-32.420536 L329.45892,-32.420536 L329.93988,-32.420536 L330.42084,-32.420536 L330.9018,-32.420536 L331.38275,-32.420536 L331.86374,-32.420536 L332.3447,-33.251835 L332.82565,-33.251835 L333.3066,-33.251835 L333.78757,-33.251835 L334.26852,-33.251835 L334.7495,-33.251835 L335.23047,-33.251835 L335.71143,-33.251835 L336.19238,-33.251835 L336.67334,-33.251835 L337.1543,-33.251835 L337.63528,-33.251835 L338.11624,-33.251835 L338.5972,-33.251835 L339.07816,-33.251835 L339.5591,-33.251835 L340.04007,-34.08313 L340.52106,-34.08313 L341.002,-34.08313 L341.48297,-34.914425 L341.96393,-34.914425 L342.4449,-34.914425 L342.92584,-34.914425 L343.4068,-34.914425 L343.8878,-35.74572 L344.36874,-36.57702 L344.8497,-36.57702 L345.33066,-36.57702 L345.8116,-36.57702 L346.29257,-36.57702 L346.77356,-37.408314 L347.25452,-37.408314 L347.73547,-37.408314 L348.21643,-37.408314 L348.6974,-37.408314 L349.17834,-37.408314 L349.65933,-37.408314 L350.1403,-37.408314 L350.62125,-37.408314 L351.1022,-37.408314 L351.58316,-37.408314 L352.06412,-37.408314 L352.5451,-37.408314 L353.02606,-37.408314 L353.50702,-37.408314 L353.98798,-37.408314 L354.46893,-37.408314 L354.9499,-37.408314 L355.43085,-37.408314 L355.91183,-37.408314 L356.3928,-37.408314 L356.87375,-37.408314 L357.3547,-37.408314 L357.83566,-38.23961 L358.31662,-38.23961 L358.7976,-38.23961 L359.27856,-38.23961 L359.75952,-38.23961 L360.24048,-38.23961 L360.72144,-38.23961 L361.2024,-38.23961 L361.68338,-38.23961 L362.16434,-38.23961 L362.6453,-38.23961 L363.12625,-38.23961 L363.6072,-38.23961 L364.08817,-38.23961 L364.56915,-38.23961 L365.0501,-38.23961 L365.53107,-38.23961 L366.01202,-38.23961 L366.49298,-38.23961 L366.97394,-38.23961 L367.4549,-38.23961 L367.93588,-39.070904 L368.41684,-39.070904 L368.8978,-39.070904 L369.37875,-39.070904 L369.8597,-39.070904 L370.34067,-39.070904 L370.82166,-39.9022 L371.3026,-39.9022 L371.78357,-40.733498 L372.26453,-40.733498 L372.74548,-40.733498 L373.22644,-40.733498 L373.70743,-40.733498 L374.1884,-40.733498 L374.66934,-41.564793 L375.1503,-41.564793 L375.63126,-41.564793 L376.1122,-42.396088 L376.5932,-42.396088 L377.07416,-43.227383 L377.5551,-43.227383 L378.03607,-43.227383 L378.51703,-43.227383 L378.998,-43.227383 L379.47894,-43.227383 L379.95993,-43.227383 L380.4409,-43.227383 L380.92184,-43.227383 L381.4028,-43.227383 L381.88376,-43.227383 L382.36472,-43.227383 L382.8457,-43.227383 L383.32666,-43.227383 L383.80762,-43.227383 L384.28857,-44.05868 L384.76953,-44.889977 L385.2505,-44.889977 L385.73148,-44.889977 L386.21243,-45.72127 L386.6934,-46.552567 L387.17435,-46.552567 L387.6553,-46.552567 L388.13626,-46.552567 L388.61725,-46.552567 L389.0982,-46.552567 L389.57916,-46.552567 L390.06012,-46.552567 L390.54108,-46.552567 L391.02203,-46.552567 L391.50302,-46.552567 L391.98398,-46.552567 L392.46494,-46.552567 L392.9459,-46.552567 L393.42685,-46.552567 L393.9078,-46.552567 L394.38876,-46.552567 L394.86975,-46.552567 L395.3507,-46.552567 L395.83167,-46.552567 L396.31262,-47.38386 L396.79358,-47.38386 L397.27454,-47.38386 L397.75552,-47.38386 L398.23648,-47.38386 L398.71744,-47.38386 L399.1984,-47.38386 L399.67935,-47.38386 L400.1603,-47.38386 L400.6413,-47.38386 L401.12225,-47.38386 L401.6032,-47.38386 L402.08417,-48.21516 L402.56512,-48.21516 L403.04608,-49.046455 L403.52707,-49.046455 L404.00803,-49.046455 L404.48898,-49.046455 L404.96994,-49.046455 L405.4509,-49.046455 L405.93185,-49.046455 L406.4128,-49.046455 L406.8938,-49.046455 L407.37476,-49.046455 L407.8557,-49.046455 L408.33667,-49.046455 L408.81763,-49.046455 L409.29858,-49.046455 L409.77957,-49.046455 L410.26053,-49.046455 L410.7415,-49.046455 L411.22244,-49.046455 L411.7034,-49.046455 L412.18436,-49.046455 L412.66534,-49.046455 L413.1463,-49.046455 L413.62726,-49.046455 L414.10822,-49.046455 L414.58917,-49.046455 L415.07013,-49.046455 L415.55112,-49.046455 L416.03207,-49.046455 L416.51303,-49.046455 L416.994,-49.046455 L417.47495,-49.046455 L417.9559,-49.046455 L418.43686,-49.046455 L418.91785,-49.046455 L419.3988,-49.87775 L419.87976,-49.87775 L420.36072,-49.87775 L420.84167,-49.87775 L421.32263,-49.87775 L421.80362,-49.87775 L422.28458,-49.87775 L422.76553,-49.87775 L423.2465,-50.709045 L423.72745,-50.709045 L424.2084,-50.709045 L424.6894,-50.709045 L425.17035,-50.709045 L425.6513,-50.709045 L426.13226,-50.709045 L426.61322,-50.709045 L427.09418,-50.709045 L427.57516,-50.709045 L428.05612,-50.709045 L428.53708,-50.709045 L429.01804,-50.709045 L429.499,-50.709045 L429.97995,-50.709045 L430.4609,-50.709045 L430.9419,-50.709045 L431.42285,-50.709045 L431.9038,-50.709045 L432.38477,-50.709045 L432.86572,-50.709045 L433.34668,-50.709045 L433.82767,-50.709045 L434.30862,-51.54034 L434.78958,-52.37164 L435.27054,-52.37164 L435.7515,-52.37164 L436.23245,-52.37164 L436.71344,-52.37164 L437.1944,-52.37164 L437.67535,-52.37164 L438.1563,-52.37164 L438.63727,-52.37164 L439.11823,-52.37164 L439.5992,-52.37164 L440.08017,-53.202934 L440.56113,-53.202934 L441.04208,-53.202934 L441.52304,-53.202934 L442.004,-53.202934 L442.48495,-53.202934 L442.96594,-53.202934 L443.4469,-53.202934 L443.92786,-53.202934 L444.4088,-53.202934 L444.88977,-53.202934 L445.37073,-54.03423 L445.8517,-54.03423 L446.33267,-54.03423 L446.81363,-54.03423 L447.2946,-54.03423 L447.77554,-54.03423 L448.2565,-54.03423 L448.7375,-54.03423 L449.21844,-54.03423 L449.6994,-54.03423 L450.18036,-54.03423 L450.66132,-54.03423 L451.14227,-54.03423 L451.62326,-54.03423 L452.10422,-54.03423 L452.58517,-54.03423 L453.06613,-54.03423 L453.5471,-54.03423 L454.02805,-54.03423 L454.50903,-54.03423 L454.99,-54.865524 L455.47095,-54.865524 L455.9519,-54.865524 L456.43286,-54.865524 L456.91382,-54.865524 L457.39478,-54.865524 L457.87576,-54.865524 L458.35672,-54.865524 L458.83768,-54.865524 L459.31863,-54.865524 L459.7996,-54.865524 L460.28055,-54.865524 L460.76154,-54.865524 L461.2425,-54.865524 L461.72345,-54.865524 L462.2044,-54.865524 L462.68536,-54.865524 L463.16632,-55.696823 L463.6473,-55.696823 L464.12827,-55.696823 L464.60922,-56.52812 L465.09018,-56.52812 L465.57114,-56.52812 L466.0521,-56.52812 L466.53308,-56.52812 L467.01404,-56.52812 L467.495,-56.52812 L467.97595,-56.52812 L468.4569,-56.52812 L468.93787,-56.52812 L469.41882,-56.52812 L469.8998,-56.52812 L470.38077,-56.52812 L470.86172,-56.52812 L471.34268,-56.52812 L471.82364,-56.52812 L472.3046,-56.52812 L472.78558,-56.52812 L473.26654,-56.52812 L473.7475,-56.52812 L474.22845,-56.52812 L474.7094,-56.52812 L475.19037,-56.52812 L475.67136,-56.52812 L476.1523,-56.52812 L476.63327,-56.52812 L477.11423,-57.359413 L477.59518,-57.359413 L478.07614,-57.359413 L478.55713,-58.19071 L479.0381,-58.19071 L479.51904,-58.19071 L480,-58.19071" fill="none" stroke="#00FFFB" stroke-linejoin="round" stroke-width="2"/>
</g>
</g>
<g transform="translate(380, -304)">
<text font-size="12" text-anchor="start" x="0" y="0">
discarted resources
</text>
<line stroke="#00FFFB" stroke-width="2" x1="-10" x2="-3" y1="-4" y2="-4"/>
</g>
<g>
<g>
<path d="M0,-0 L0,-0 L0.48096192,-0 L0.96192384,-0 L1.4428858,-0 L1.9238477,-0 L2.4048097,-0 L2.8857715,-0.83129585 L3.3667336,-1.6625917 L3.8476954,-0.83129585 L4.328657,-1.6625917 L4.8096194,-1.6625917 L5.290581,-1.6625917 L5.771543,-0.83129585 L6.252505,-0.83129585 L6.733467,-0.83129585 L7.214429,-1.6625917 L7.6953907,-1.6625917 L8.1763525,-2.4938874 L8.657314,-2.4938874 L9.138276,-2.4938874 L9.619239,-1.6625917 L10.100201,-1.6625917 L10.581162,-2.4938874 L11.062124,-2.4938874 L11.543086,-1.6625917 L12.024048,-1.6625917 L12.50501,-1.6625917 L12.985972,-1.6625917 L13.466934,-1.6625917 L13.947896,-1.6625917 L14.428858,-2.4938874 L14.90982,-2.4938874 L15.390781,-3.3251834 L15.871743,-2.4938874 L16.352705,-3.3251834 L16.833668,-2.4938874 L17.314629,-3.3251834 L17.795591,-4.1564794 L18.276552,-4.1564794 L18.757515,-4.1564794 L19.238478,-3.3251834 L19.719439,-2.4938874 L20.200401,-3.3251834 L20.681362,-3.3251834 L21.162325,-2.4938874 L21.643286,-3.3251834 L22.124249,-4.1564794 L22.605211,-3.3251834 L23.086172,-4.1564794 L23.567135,-4.1564794 L24.048096,-3.3251834 L24.529058,-2.4938874 L25.01002,-1.6625917 L25.490982,-2.4938874 L25.971945,-1.6625917 L26.452906,-2.4938874 L26.933868,-2.4938874 L27.41483,-2.4938874 L27.895792,-1.6625917 L28.376753,-1.6625917 L28.857716,-1.6625917 L29.338676,-2.4938874 L29.81964,-2.4938874 L30.300602,-2.4938874 L30.781563,-2.4938874 L31.262526,-1.6625917 L31.743486,-2.4938874 L32.22445,-3.3251834 L32.70541,-3.3251834 L33.18637,-2.4938874 L33.667336,-2.4938874 L34.148296,-3.3251834 L34.629257,-4.1564794 L35.11022,-4.1564794 L35.591183,-4.987775 L36.072144,-4.987775 L36.553104,-4.987775 L37.03407,-4.987775 L37.51503,-4.987775 L37.99599,-4.1564794 L38.476955,-4.1564794 L38.957916,-4.987775 L39.438877,-4.987775 L39.919838,-4.987775 L40.400803,-4.987775 L40.881763,-4.1564794 L41.362724,-4.1564794 L41.84369,-4.1564794 L42.32465,-4.987775 L42.80561,-4.987775 L43.28657,-4.987775 L43.767536,-4.1564794 L44.248497,-4.987775 L44.729458,-4.987775 L45.210423,-5.819071 L45.691383,-4.987775 L46.172344,-5.819071 L46.653305,-5.819071 L47.13427,-5.819071 L47.61523,-5.819071 L48.09619,-5.819071 L48.577156,-5.819071 L49.058117,-5.819071 L49.539078,-5.819071 L50.02004,-5.819071 L50.501003,-6.650367 L50.981964,-6.650367 L51.462925,-6.650367 L51.94389,-6.650367 L52.42485,-5.819071 L52.90581,-6.650367 L53.386772,-6.650367 L53.867737,-6.650367 L54.348698,-7.4816628 L54.82966,-8.312959 L55.31062,-8.312959 L55.791584,-8.312959 L56.272545,-7.4816628 L56.753506,-7.4816628 L57.23447,-6.650367 L57.71543,-6.650367 L58.196392,-6.650367 L58.677353,-6.650367 L59.158318,-6.650367 L59.63928,-7.4816628 L60.12024,-6.650367 L60.601204,-6.650367 L61.082165,-6.650367 L61.563126,-6.650367 L62.044086,-5.819071 L62.52505,-5.819071 L63.006012,-6.650367 L63.486973,-6.650367 L63.967937,-6.650367 L64.4489,-6.650367 L64.92986,-6.650367 L65.41082,-7.4816628 L65.891785,-7.4816628 L66.37274,-7.4816628 L66.85371,-8.312959 L67.33467,-7.4816628 L67.81563,-7.4816628 L68.29659,-7.4816628 L68.77756,-7.4816628 L69.258514,-7.4816628 L69.73948,-7.4816628 L70.22044,-7.4816628 L70.7014,-7.4816628 L71.182365,-6.650367 L71.66333,-6.650367 L72.14429,-6.650367 L72.62525,-5.819071 L73.10621,-6.650367 L73.58717,-6.650367 L74.06814,-6.650367 L74.549095,-6.650367 L75.03006,-6.650367 L75.511024,-7.4816628 L75.99198,-6.650367 L76.472946,-7.4816628 L76.95391,-6.650367 L77.43487,-6.650367 L77.91583,-7.4816628 L78.3968,-7.4816628 L78.877754,-7.4816628 L79.35872,-7.4816628 L79.839676,-6.650367 L80.32064,-6.650367 L80.801605,-6.650367 L81.28256,-7.4816628 L81.76353,-8.312959 L82.24449,-8.312959 L82.72545,-8.312959 L83.20641,-7.4816628 L83.68738,-7.4816628 L84.168335,-8.312959 L84.6493,-8.312959 L85.130264,-8.312959 L85.61122,-7.4816628 L86.092186,-8.312959 L86.57314,-7.4816628 L87.05411,-7.4816628 L87.53507,-8.312959 L88.01603,-7.4816628 L88.496994,-7.4816628 L88.97796,-6.650367 L89.458916,-7.4816628 L89.93988,-6.650367 L90.420845,-6.650367 L90.9018,-6.650367 L91.38277,-5.819071 L91.86372,-6.650367 L92.34469,-5.819071 L92.82565,-5.819071 L93.30661,-6.650367 L93.787575,-6.650367 L94.26854,-7.4816628 L94.7495,-7.4816628 L95.23046,-7.4816628 L95.711426,-7.4816628 L96.19238,-8.312959 L96.67335,-8.312959 L97.15431,-8.312959 L97.63527,-7.4816628 L98.116234,-7.4816628 L98.59719,-6.650367 L99.078156,-7.4816628 L99.55912,-7.4816628 L100.04008,-8.312959 L100.52104,-7.4816628 L101.00201,-6.650367 L101.48296,-7.4816628 L101.96393,-6.650367 L102.44489,-6.650367 L102.92585,-6.650367 L103.406815,-6.650367 L103.88778,-6.650367 L104.36874,-6.650367 L104.8497,-6.650367 L105.33066,-5.819071 L105.81162,-5.819071 L106.29259,-6.650367 L106.773544,-5.819071 L107.25451,-6.650367 L107.73547,-6.650367 L108.21643,-6.650367 L108.697395,-6.650367 L109.17836,-5.819071 L109.65932,-5.819071 L110.14028,-5.819071 L110.62124,-6.650367 L111.1022,-6.650367 L111.58317,-7.4816628 L112.064125,-6.650367 L112.54509,-6.650367 L113.026054,-7.4816628 L113.50701,-6.650367 L113.987976,-6.650367 L114.46894,-6.650367 L114.9499,-6.650367 L115.43086,-6.650367 L115.91183,-5.819071 L116.392784,-6.650367 L116.87375,-6.650367 L117.354706,-6.650367 L117.83567,-5.819071 L118.316635,-6.650367 L118.79759,-6.650367 L119.27856,-6.650367 L119.75952,-5.819071 L120.24048,-6.650367 L120.72144,-6.650367 L121.20241,-6.650367 L121.683365,-6.650367 L122.16433,-6.650367 L122.645294,-6.650367 L123.12625,-7.4816628 L123.607216,-7.4816628 L124.08817,-8.312959 L124.56914,-7.4816628 L125.0501,-8.312959 L125.53106,-8.312959 L126.012024,-7.4816628 L126.49299,-7.4816628 L126.973946,-8.312959 L127.45491,-8.312959 L127.935875,-8.312959 L128.41684,-7.4816628 L128.8978,-7.4816628 L129.37875,-7.4816628 L129.85973,-7.4816628 L130.34068,-7.4816628 L130.82164,-7.4816628 L131.30261,-8.312959 L131.78357,-8.312959 L132.26453,-7.4816628 L132.74548,-7.4816628 L133.22646,-6.650367 L133.70741,-6.650367 L134.18837,-7.4816628 L134.66934,-7.4816628 L135.1503,-7.4816628 L135.63126,-7.4816628 L136.11223,-7.4816628 L136.59319,-6.650367 L137.07414,-6.650367 L137.55511,-7.4816628 L138.03607,-7.4816628 L138.51703,-6.650367 L138.998,-6.650367 L139.47896,-7.4816628 L139.95992,-7.4816628 L140.44089,-7.4816628 L140.92184,-8.312959 L141.4028,-7.4816628 L141.88377,-7.4816628 L142.36473,-8.312959 L142.84569,-7.4816628 L143.32666,-7.4816628 L143.80762,-8.312959 L144.28857,-7.4816628 L144.76955,-7.4816628 L145.2505,-8.312959 L145.73146,-8.312959 L146.21242,-8.312959 L146.69339,-7.4816628 L147.17435,-8.312959 L147.6553,-7.4816628 L148.13628,-6.650367 L148.61723,-5.819071 L149.09819,-5.819071 L149.57916,-6.650367 L150.06012,-6.650367 L150.54108,-5.819071 L151.02205,-6.650367 L151.503,-6.650367 L151.98396,-6.650367 L152.46494,-6.650367 L152.94589,-6.650367 L153.42685,-6.650367 L153.90782,-5.819071 L154.38878,-6.650367 L154.86974,-5.819071 L155.35071,-5.819071 L155.83167,-5.819071 L156.31262,-4.987775 L156.7936,-4.987775 L157.27455,-5.819071 L157.75551,-5.819071 L158.23647,-4.987775 L158.71744,-4.987775 L159.1984,-4.987775 L159.67935,-5.819071 L160.16032,-5.819071 L160.64128,-5.819071 L161.12224,-5.819071 L161.60321,-4.987775 L162.08417,-4.987775 L162.56512,-4.987775 L163.0461,-5.819071 L163.52705,-4.987775 L164.00801,-5.819071 L164.48898,-6.650367 L164.96994,-5.819071 L165.4509,-5.819071 L165.93187,-5.819071 L166.41283,-6.650367 L166.89378,-5.819071 L167.37476,-6.650367 L167.85571,-6.650367 L168.33667,-6.650367 L168.81764,-6.650367 L169.2986,-5.819071 L169.77956,-5.819071 L170.26053,-5.819071 L170.74149,-5.819071 L171.22244,-4.987775 L171.7034,-4.987775 L172.18437,-4.987775 L172.66533,-4.987775 L173.14629,-4.987775 L173.62726,-5.819071 L174.10822,-6.650367 L174.58917,-6.650367 L175.07014,-7.4816628 L175.5511,-7.4816628 L176.03206,-6.650367 L176.51303,-7.4816628 L176.99399,-6.650367 L177.47495,-6.650367 L177.95592,-7.4816628 L178.43687,-7.4816628 L178.91783,-7.4816628 L179.3988,-7.4816628 L179.87976,-8.312959 L180.36072,-8.312959 L180.84169,-8.312959 L181.32265,-8.312959 L181.8036,-7.4816628 L182.28458,-7.4816628 L182.76553,-7.4816628 L183.24649,-7.4816628 L183.72745,-7.4816628 L184.20842,-8.312959 L184.68938,-7.4816628 L185.17033,-8.312959 L185.6513,-8.312959 L186.13226,-7.4816628 L186.61322,-8.312959 L187.0942,-7.4816628 L187.57515,-8.312959 L188.0561,-8.312959 L188.53708,-8.312959 L189.01804,-7.4816628 L189.499,-7.4816628 L189.97997,-7.4816628 L190.46092,-8.312959 L190.94188,-7.4816628 L191.42285,-7.4816628 L191.90381,-8.312959 L192.38477,-7.4816628 L192.86574,-8.312959 L193.3467,-7.4816628 L193.82765,-7.4816628 L194.30862,-8.312959 L194.78958,-8.312959 L195.27054,-7.4816628 L195.75151,-7.4816628 L196.23247,-7.4816628 L196.71342,-8.312959 L197.19438,-7.4816628 L197.67535,-8.312959 L198.15631,-8.312959 L198.63727,-8.312959 L199.11824,-8.312959 L199.5992,-7.4816628 L200.08015,-8.312959 L200.56113,-8.312959 L201.04208,-8.312959 L201.52304,-7.4816628 L202.00401,-7.4816628 L202.48497,-7.4816628 L202.96593,-8.312959 L203.4469,-8.312959 L203.92786,-8.312959 L204.40881,-8.312959 L204.88979,-7.4816628 L205.37074,-8.312959 L205.8517,-8.312959 L206.33267,-7.4816628 L206.81363,-7.4816628 L207.29459,-8.312959 L207.77556,-8.312959 L208.25652,-7.4816628 L208.73747,-7.4816628 L209.21843,-7.4816628 L209.6994,-6.650367 L210.18036,-6.650367 L210.66132,-6.650367 L211.14229,-6.650367 L211.62325,-6.650367 L212.1042,-7.4816628 L212.58517,-6.650367 L213.06613,-5.819071 L213.54709,-5.819071 L214.02806,-5.819071 L214.50902,-4.987775 L214.98997,-4.987775 L215.47095,-4.987775 L215.9519,-4.987775 L216.43286,-5.819071 L216.91383,-5.819071 L217.39479,-5.819071 L217.87575,-6.650367 L218.35672,-5.819071 L218.83768,-5.819071 L219.31863,-6.650367 L219.7996,-7.4816628 L220.28056,-7.4816628 L220.76152,-6.650367 L221.24248,-6.650367 L221.72345,-7.4816628 L222.2044,-7.4816628 L222.68536,-7.4816628 L223.16634,-8.312959 L223.6473,-7.4816628 L224.12825,-8.312959 L224.60922,-8.312959 L225.09018,-8.312959 L225.57114,-8.312959 L226.05211,-8.312959 L226.53307,-8.312959 L227.01402,-7.4816628 L227.495,-7.4816628 L227.97595,-6.650367 L228.45691,-6.650367 L228.93788,-6.650367 L229.41884,-7.4816628 L229.8998,-7.4816628 L230.38077,-6.650367 L230.86172,-5.819071 L231.34268,-5.819071 L231.82365,-5.819071 L232.30461,-5.819071 L232.78557,-4.987775 L233.26654,-4.987775 L233.7475,-4.987775 L234.22845,-4.987775 L234.70941,-4.987775 L235.19038,-4.1564794 L235.67134,-4.1564794 L236.1523,-4.1564794 L236.63327,-4.987775 L237.11423,-4.987775 L237.59518,-4.1564794 L238.07616,-4.1564794 L238.55711,-3.3251834 L239.03807,-3.3251834 L239.51904,-2.4938874 L240,-3.3251834 L240.48096,-3.3251834 L240.96193,-4.1564794 L241.44289,-3.3251834 L241.92384,-4.1564794 L242.40482,-3.3251834 L242.88577,-4.1564794 L243.36673,-4.1564794 L243.8477,-4.1564794 L244.32866,-4.987775 L244.80962,-4.987775 L245.29059,-4.987775 L245.77155,-4.987775 L246.2525,-4.1564794 L246.73346,-4.987775 L247.21443,-4.987775 L247.69539,-4.987775 L248.17635,-5.819071 L248.65732,-4.987775 L249.13828,-5.819071 L249.61923,-4.987775 L250.1002,-4.987775 L250.58116,-5.819071 L251.06212,-6.650367 L251.54309,-7.4816628 L252.02405,-6.650367 L252.505,-7.4816628 L252.98598,-7.4816628 L253.46693,-8.312959 L253.94789,-8.312959 L254.42886,-8.312959 L254.90982,-7.4816628 L255.39078,-8.312959 L255.87175,-8.312959 L256.3527,-7.4816628 L256.83368,-7.4816628 L257.31464,-8.312959 L257.7956,-8.312959 L258.27655,-8.312959 L258.7575,-8.312959 L259.23846,-7.4816628 L259.71945,-7.4816628 L260.2004,-7.4816628 L260.68137,-7.4816628 L261.16232,-8.312959 L261.64328,-8.312959 L262.12424,-8.312959 L262.60522,-7.4816628 L263.08618,-8.312959 L263.56714,-8.312959 L264.0481,-7.4816628 L264.52905,-8.312959 L265.01,-8.312959 L265.49097,-8.312959 L265.97195,-7.4816628 L266.4529,-7.4816628 L266.93387,-8.312959 L267.41483,-8.312959 L267.89578,-8.312959 L268.37674,-8.312959 L268.85773,-7.4816628 L269.33868,-8.312959 L269.81964,-8.312959 L270.3006,-7.4816628 L270.78156,-6.650367 L271.2625,-6.650367 L271.7435,-6.650367 L272.22446,-7.4816628 L272.7054,-6.650367 L273.18637,-5.819071 L273.66733,-5.819071 L274.1483,-5.819071 L274.62927,-5.819071 L275.11023,-4.987775 L275.5912,-5.819071 L276.07214,-5.819071 L276.5531,-5.819071 L277.03406,-5.819071 L277.51505,-5.819071 L277.996,-6.650367 L278.47696,-5.819071 L278.95792,-4.987775 L279.43887,-4.987775 L279.91983,-4.987775 L280.4008,-4.987775 L280.88177,-4.987775 L281.36273,-5.819071 L281.8437,-5.819071 L282.32465,-5.819071 L282.8056,-5.819071 L283.28656,-4.987775 L283.76755,-4.987775 L284.2485,-4.987775 L284.72946,-5.819071 L285.21042,-4.987775 L285.69138,-4.987775 L286.17233,-4.987775 L286.65332,-4.987775 L287.13428,-4.987775 L287.61523,-4.987775 L288.0962,-5.819071 L288.57715,-5.819071 L289.0581,-4.987775 L289.5391,-4.987775 L290.02005,-4.987775 L290.501,-4.987775 L290.98196,-5.819071 L291.46292,-5.819071 L291.94388,-6.650367 L292.42484,-5.819071 L292.90582,-6.650367 L293.38678,-6.650367 L293.86774,-6.650367 L294.3487,-6.650367 L294.82965,-7.4816628 L295.3106,-7.4816628 L295.7916,-6.650367 L296.27255,-6.650367 L296.7535,-6.650367 L297.23447,-7.4816628 L297.71542,-7.4816628 L298.19638,-7.4816628 L298.67737,-7.4816628 L299.15833,-7.4816628 L299.63928,-8.312959 L300.12024,-7.4816628 L300.6012,-7.4816628 L301.08215,-7.4816628 L301.56314,-8.312959 L302.0441,-8.312959 L302.52505,-7.4816628 L303.006,-8.312959 L303.48697,-7.4816628 L303.96793,-7.4816628 L304.44888,-7.4816628 L304.92987,-7.4816628 L305.41083,-7.4816628 L305.89178,-7.4816628 L306.37274,-7.4816628 L306.8537,-7.4816628 L307.33466,-6.650367 L307.81564,-7.4816628 L308.2966,-7.4816628 L308.77756,-7.4816628 L309.2585,-7.4816628 L309.73947,-8.312959 L310.22043,-7.4816628 L310.70142,-7.4816628 L311.18237,-7.4816628 L311.66333,-8.312959 L312.1443,-8.312959 L312.62524,-7.4816628 L313.1062,-8.312959 L313.5872,-7.4816628 L314.06815,-8.312959 L314.5491,-8.312959 L315.03006,-8.312959 L315.51102,-8.312959 L315.99197,-7.4816628 L316.47293,-7.4816628 L316.95392,-8.312959 L317.43488,-8.312959 L317.91583,-8.312959 L318.3968,-7.4816628 L318.87775,-7.4816628 L319.3587,-7.4816628 L319.8397,-7.4816628 L320.32065,-8.312959 L320.8016,-7.4816628 L321.28256,-7.4816628 L321.76352,-7.4816628 L322.24448,-8.312959 L322.72546,-7.4816628 L323.20642,-8.312959 L323.68738,-8.312959 L324.16833,-7.4816628 L324.6493,-7.4816628 L325.13025,-7.4816628 L325.61124,-7.4816628 L326.0922,-6.650367 L326.57315,-6.650367 L327.0541,-6.650367 L327.53506,-6.650367 L328.01602,-6.650367 L328.49698,-7.4816628 L328.97797,-7.4816628 L329.45892,-6.650367 L329.93988,-6.650367 L330.42084,-7.4816628 L330.9018,-8.312959 L331.38275,-8.312959 L331.86374,-8.312959 L332.3447,-7.4816628 L332.82565,-6.650367 L333.3066,-6.650367 L333.78757,-6.650367 L334.26852,-6.650367 L334.7495,-6.650367 L335.23047,-6.650367 L335.71143,-7.4816628 L336.19238,-7.4816628 L336.67334,-8.312959 L337.1543,-7.4816628 L337.63528,-7.4816628 L338.11624,-7.4816628 L338.5972,-6.650367 L339.07816,-7.4816628 L339.5591,-8.312959 L340.04007,-8.312959 L340.52106,-8.312959 L341.002,-8.312959 L341.48297,-7.4816628 L341.96393,-7.4816628 L342.4449,-8.312959 L342.92584,-7.4816628 L343.4068,-8.312959 L343.8878,-8.312959 L344.36874,-8.312959 L344.8497,-7.4816628 L345.33066,-8.312959 L345.8116,-7.4816628 L346.29257,-8.312959 L346.77356,-8.312959 L347.25452,-8.312959 L347.73547,-7.4816628 L348.21643,-8.312959 L348.6974,-8.312959 L349.17834,-7.4816628 L349.65933,-7.4816628 L350.1403,-8.312959 L350.62125,-7.4816628 L351.1022,-7.4816628 L351.58316,-8.312959 L352.06412,-7.4816628 L352.5451,-7.4816628 L353.02606,-7.4816628 L353.50702,-6.650367 L353.98798,-7.4816628 L354.46893,-6.650367 L354.9499,-7.4816628 L355.43085,-7.4816628 L355.91183,-7.4816628 L356.3928,-7.4816628 L356.87375,-8.312959 L357.3547,-8.312959 L357.83566,-7.4816628 L358.31662,-7.4816628 L358.7976,-7.4816628 L359.27856,-6.650367 L359.75952,-6.650367 L360.24048,-7.4816628 L360.72144,-7.4816628 L361.2024,-6.650367 L361.68338,-7.4816628 L362.16434,-8.312959 L362.6453,-7.4816628 L363.12625,-6.650367 L363.6072,-6.650367 L364.08817,-7.4816628 L364.56915,-6.650367 L365.0501,-6.650367 L365.53107,-6.650367 L366.01202,-7.4816628 L366.49298,-7.4816628 L366.97394,-7.4816628 L367.4549,-8.312959 L367.93588,-7.4816628 L368.41684,-8.312959 L368.8978,-8.312959 L369.37875,-7.4816628 L369.8597,-7.4816628 L370.34067,-8.312959 L370.82166,-7.4816628 L371.3026,-8.312959 L371.78357,-8.312959 L372.26453,-7.4816628 L372.74548,-7.4816628 L373.22644,-7.4816628 L373.70743,-8.312959 L374.1884,-8.312959 L374.66934,-7.4816628 L375.1503,-7.4816628 L375.63126,-8.312959 L376.1122,-8.312959 L376.5932,-8.312959 L377.07416,-7.4816628 L377.5551,-7.4816628 L378.03607,-7.4816628 L378.51703,-7.4816628 L378.998,-7.4816628 L379.47894,-7.4816628 L379.95993,-7.4816628 L380.4409,-7.4816628 L380.92184,-7.4816628 L381.4028,-8.312959 L381.88376,-7.4816628 L382.36472,-7.4816628 L382.8457,-7.4816628 L383.32666,-7.4816628 L383.80762,-8.312959 L384.28857,-8.312959 L384.76953,-7.4816628 L385.2505,-8.312959 L385.73148,-8.312959 L386.21243,-8.312959 L386.6934,-7.4816628 L387.17435,-7.4816628 L387.6553,-6.650367 L388.13626,-7.4816628 L388.61725,-6.650367 L389.0982,-6.650367 L389.57916,-7.4816628 L390.06012,-7.4816628 L390.54108,-6.650367 L391.02203,-7.4816628 L391.50302,-7.4816628 L391.98398,-7.4816628 L392.46494,-8.312959 L392.9459,-8.312959 L393.42685,-8.312959 L393.9078,-8.312959 L394.38876,-7.4816628 L394.86975,-7.4816628 L395.3507,-8.312959 L395.83167,-8.312959 L396.31262,-8.312959 L396.79358,-7.4816628 L397.27454,-7.4816628 L397.75552,-6.650367 L398.23648,-6.650367 L398.71744,-6.650367 L399.1984,-7.4816628 L399.67935,-8.312959 L400.1603,-8.312959 L400.6413,-8.312959 L401.12225,-7.4816628 L401.6032,-8.312959 L402.08417,-8.312959 L402.56512,-8.312959 L403.04608,-8.312959 L403.52707,-7.4816628 L404.00803,-7.4816628 L404.48898,-6.650367 L404.96994,-6.650367 L405.4509,-6.650367 L405.93185,-7.4816628 L406.4128,-7.4816628 L406.8938,-6.650367 L407.37476,-5.819071 L407.8557,-4.987775 L408.33667,-4.987775 L408.81763,-5.819071 L409.29858,-4.987775 L409.77957,-4.987775 L410.26053,-5.819071 L410.7415,-4.987775 L411.22244,-5.819071 L411.7034,-6.650367 L412.18436,-6.650367 L412.66534,-6.650367 L413.1463,-7.4816628 L413.62726,-7.4816628 L414.10822,-7.4816628 L414.58917,-7.4816628 L415.07013,-6.650367 L415.55112,-6.650367 L416.03207,-7.4816628 L416.51303,-7.4816628 L416.994,-7.4816628 L417.47495,-7.4816628 L417.9559,-7.4816628 L418.43686,-7.4816628 L418.91785,-8.312959 L419.3988,-8.312959 L419.87976,-7.4816628 L420.36072,-7.4816628 L420.84167,-7.4816628 L421.32263,-7.4816628 L421.80362,-7.4816628 L422.28458,-7.4816628 L422.76553,-8.312959 L423.2465,-8.312959 L423.72745,-7.4816628 L424.2084,-7.4816628 L424.6894,-8.312959 L425.17035,-8.312959 L425.6513,-8.312959 L426.13226,-7.4816628 L426.61322,-8.312959 L427.09418,-7.4816628 L427.57516,-7.4816628 L428.05612,-7.4816628 L428.53708,-6.650367 L429.01804,-7.4816628 L429.499,-7.4816628 L429.97995,-6.650367 L430.4609,-6.650367 L430.9419,-7.4816628 L431.42285,-6.650367 L431.9038,-7.4816628 L432.38477,-8.312959 L432.86572,-7.4816628 L433.34668,-7.4816628 L433.82767,-8.312959 L434.30862,-8.312959 L434.78958,-7.4816628 L435.27054,-7.4816628 L435.7515,-7.4816628 L436.23245,-7.4816628 L436.71344,-7.4816628 L437.1944,-7.4816628 L437.67535,-7.4816628 L438.1563,-7.4816628 L438.63727,-8.312959 L439.11823,-8.312959 L439.5992,-8.312959 L440.08017,-7.4816628 L440.56113,-7.4816628 L441.04208,-6.650367 L441.52304,-6.650367 L442.004,-7.4816628 L442.48495,-7.4816628 L442.96594,-7.4816628 L443.4469,-8.312959 L443.92786,-7.4816628 L444.4088,-8.312959 L444.88977,-8.312959 L445.37073,-8.312959 L445.8517,-8.312959 L446.33267,-8.312959 L446.81363,-8.312959 L447.2946,-7.4816628 L447.77554,-8.312959 L448.2565,-8.312959 L448.7375,-8.312959 L449.21844,-8.312959 L449.6994,-7.4816628 L450.18036,-7.4816628 L450.66132,-8.312959 L451.14227,-7.4816628 L451.62326,-7.4816628 L452.10422,-8.312959 L452.58517,-7.4816628 L453.06613,-7.4816628 L453.5471,-8.312959 L454.02805,-8.312959 L454.50903,-8.312959 L454.99,-7.4816628 L455.47095,-6.650367 L455.9519,-6.650367 L456.43286,-6.650367 L456.91382,-6.650367 L457.39478,-7.4816628 L457.87576,-8.312959 L458.35672,-7.4816628 L458.83768,-7.4816628 L459.31863,-6.650367 L459.7996,-7.4816628 L460.28055,-7.4816628 L460.76154,-6.650367 L461.2425,-7.4816628 L461.72345,-8.312959 L462.2044,-8.312959 L462.68536,-8.312959 L463.16632,-7.4816628 L463.6473,-7.4816628 L464.12827,-8.312959 L464.60922,-7.4816628 L465.09018,-7.4816628 L465.57114,-7.4816628 L466.0521,-6.650367 L466.53308,-6.650367 L467.01404,-7.4816628 L467.495,-7.4816628 L467.97595,-6.650367 L468.4569,-6.650367 L468.93787,-6.650367 L469.41882,-7.4816628 L469.8998,-7.4816628 L470.38077,-8.312959 L470.86172,-7.4816628 L471.34268,-8.312959 L471.82364,-8.312959 L472.3046,-7.4816628 L472.78558,-7.4816628 L473.26654,-6.650367 L473.7475,-6.650367 L474.22845,-6.650367 L474.7094,-7.4816628 L475.19037,-7.4816628 L475.67136,-8.312959 L476.1523,-7.4816628 L476.63327,-8.312959 L477.11423,-8.312959 L477.59518,-8.312959 L478.07614,-8.312959 L478.55713,-7.4816628 L479.0381,-7.4816628 L479.51904,-6.650367 L480,-7.4816628" fill="none" stroke="#2600FF" stroke-linejoin="round" stroke-width="2"/>
</g>
</g>
<g transform="translate(380, -286)">
<text font-size="12" text-anchor="start" x="0" y="0">
queue size
</text>
<line stroke="#2600FF" stroke-width="2" x1="-10" x2="-3" y1="-4" y2="-4"/>
</g>
<g>
<g>
<line stroke="black" stroke-width="1" x1="0" x2="0" y1="0" y2="10"/>
<line stroke="black" stroke-width="1" x1="96.19238476953907" x2="96.19238476953907" y1="0" y2="10"/>
<line stroke="black" stroke-width="1" x1="192.38476953907815" x2="192.38476953907815" y1="0" y2="10"/>
<line stroke="black" stroke-width="1" x1="288.57715430861725" x2="288.57715430861725" y1="0" y2="10"/>
<line stroke="black" stroke-width="1" x1="384.7695390781563" x2="384.7695390781563" y1="0" y2="10"/>
</g>
<line stroke="black" stroke-width="1" x1="0" x2="480" y1="0" y2="0"/>
<g>
<text font-size="12" text-anchor="middle" x="0" y="20">
0
</text>
<text font-size="12" text-anchor="middle" x="96.19238476953907" y="20">
200
</text>
<text font-size="12" text-anchor="middle" x="192.38476953907815" y="20">
400
</text>
<text font-size="12" text-anchor="middle" x="288.57715430861725" y="20">
600
</text>
<text font-size="12" text-anchor="middle" x="384.7695390781563" y="20">
800
</text>
</g>
<text font-size="12" text-anchor="middle" x="240" y="30">

</text>
</g>
<g>
<g>
<line stroke="black" stroke-width="1" x1="0" x2="-10" y1="-0" y2="-0"/>
<line stroke="black" stroke-width="1" x1="0" x2="-10" y1="-83.12958435207824" y2="-83.12958435207824"/>
<line stroke="black" stroke-width="1" x1="0" x2="-10" y1="-166.25916870415648" y2="-166.25916870415648"/>
<line stroke="black" stroke-width="1" x1="0" x2="-10" y1="-249.38875305623472" y2="-249.38875305623472"/>
<line stroke="black" stroke-width="1" x1="0" x2="-10" y1="-332.51833740831296" y2="-332.51833740831296"/>
</g>
<line stroke="black" stroke-width="1" x1="0" x2="0" y1="0" y2="-340"/>
<g>
<text dominant-baseline="middle" font-size="12" text-anchor="end" x="-15" y="-0">
0
</text>
<text dominant-baseline="middle" font-size="12" text-anchor="end" x="-15" y="-83.12958435207824">
100
</text>
<text dominant-baseline="middle" font-size="12" text-anchor="end" x="-15" y="-166.25916870415648">
200
</text>
<text dominant-baseline="middle" font-size="12" text-anchor="end" x="-15" y="-249.38875305623472">
300
</text>
<text dominant-baseline="middle" font-size="12" text-anchor="end" x="-15" y="-332.51833740831296">
400
</text>
</g>
<text font-size="12" text-anchor="middle" transform="rotate(-90 -36 -170)" x="-36" y="-182">

</text>
</g>
</g>
</svg>